<svg width="43" height="40" viewBox="0 0 43 40" fill="none" xmlns="http://www.w3.org/2000/svg">
<path d="M22.9571 5.80761C22.9621 4.28075 24.2021 3.04784 25.7291 3.04784H32.0651C38.5651 3.04784 39.4611 5.31591 39.4611 7.76659C39.4611 10.311 38.6681 13.2319 32.4831 13.2319C29.5511 13.2319 26.3051 11.4687 23.1341 9.26366C23.0171 9.18163 22.9471 9.04491 22.9471 8.90282C22.9511 7.77001 22.9541 6.729 22.9571 5.80761ZM20.5821 21.6216H22.2221C22.6111 21.6216 22.9261 21.3076 22.9271 20.918C22.9271 18.0537 22.9311 15.6528 22.9371 13.0308C22.9371 12.9287 23.0491 12.8706 23.1351 12.9248C26.1881 14.855 29.3511 16.2798 32.4831 16.2798C39.0421 16.2798 42.5091 13.3359 42.5091 7.76659C42.5091 2.61279 38.9951 -7.62939e-06 32.0651 -7.62939e-06H25.7351C22.5331 -7.62939e-06 19.9201 2.60302 19.9091 5.80273C19.9081 6.062 19.9071 6.32958 19.9061 6.60693C19.9061 6.71972 19.7761 6.78466 19.6871 6.71679C19.3061 6.42382 18.9291 6.1328 18.5561 5.84472C14.5151 2.71874 11.0261 0.0200119 8.00411 0.0200119C4.50411 0.0200119 0.276113 2.34374 0.013113 13.4126C-0.12388 19.1728 0.813116 24.7886 2.79612 30.103C5.13611 36.3769 7.76911 39.4268 10.8441 39.4268C14.5091 39.4268 16.8181 35.3188 18.8561 31.6938C19.5251 30.5039 20.4691 28.8237 21.1341 28.0869C21.3071 27.895 21.6101 27.895 21.7831 28.0869C22.4481 28.8237 23.3921 30.5039 24.0611 31.6938C26.0981 35.3188 28.4081 39.4268 32.0731 39.4268C38.1011 39.4268 41.4241 26.7436 42.3241 22.7309C42.4101 22.3467 42.1661 21.9678 41.7811 21.8867L40.1751 21.5518C39.7971 21.4726 39.4271 21.7168 39.3441 22.0947C37.1941 31.834 33.7621 36.3789 32.0731 36.3789C30.1911 36.3789 28.1841 32.8076 26.7181 30.1997C24.9921 27.1289 23.6291 24.7036 21.4591 24.7036C19.2891 24.7036 17.9251 27.1289 16.1991 30.1997C14.7331 32.8076 12.7261 36.3789 10.8441 36.3789C10.2681 36.3789 8.19311 35.8496 5.65111 29.0366C3.80511 24.0879 2.93311 18.8559 3.06011 13.4849C3.17312 8.7329 4.12211 3.06786 8.00411 3.06786C9.98411 3.06786 13.3941 5.70458 16.6911 8.25585C17.6381 8.98779 18.6101 9.73876 19.6011 10.4746C19.7851 10.6108 19.8941 10.8227 19.8931 11.0518C19.8851 14.1758 19.8791 17.314 19.8781 20.918C19.8781 21.3066 20.1931 21.6216 20.5821 21.6216Z" fill="#435549"/>
</svg>
