<svg width="35" height="35" viewBox="0 0 35 35" fill="none" xmlns="http://www.w3.org/2000/svg">
<path d="M17.014 2.1001C8.78998 2.1001 2.099 8.79102 2.099 17.0151C2.099 25.2388 8.78998 31.9302 17.014 31.9302C25.238 31.9302 31.929 25.2388 31.929 17.0151C31.929 8.79102 25.238 2.1001 17.014 2.1001ZM17.014 34.0288C7.63202 34.0288 0 26.396 0 17.0151C0 7.63281 7.63202 0 17.014 0C26.396 0 34.029 7.63281 34.029 17.0151C34.029 26.396 26.396 34.0288 17.014 34.0288Z" fill="#435549"/>
<path d="M16.9231 27.1528C13.2971 27.1528 9.86312 25.395 7.73916 22.4502C7.4001 21.98 7.50612 21.3242 7.97615 20.9849C8.4471 20.646 9.10311 20.752 9.4421 21.2222C11.1731 23.6211 13.9691 25.0532 16.9231 25.0532C19.9901 25.0532 22.8481 23.5332 24.5681 20.9878C24.8921 20.5068 25.5451 20.3809 26.0261 20.7061C26.5061 21.0298 26.6321 21.6831 26.3081 22.1641C24.1971 25.2881 20.6891 27.1528 16.9231 27.1528Z" fill="#435549"/>
<path d="M14.2728 15.7539C13.6928 15.7539 13.2228 15.2842 13.2228 14.7041C13.2228 13.644 12.3598 12.7808 11.2998 12.7808C10.2398 12.7808 9.37781 13.644 9.37781 14.7041C9.37781 15.2842 8.90784 15.7539 8.32782 15.7539C7.7478 15.7539 7.27783 15.2842 7.27783 14.7041C7.27783 12.4858 9.08282 10.6821 11.2998 10.6821C13.5188 10.6821 15.3228 12.4858 15.3228 14.7041C15.3228 15.2842 14.8528 15.7539 14.2728 15.7539Z" fill="#435549"/>
<path d="M25.7005 15.7539C25.1205 15.7539 24.6505 15.2842 24.6505 14.7041C24.6505 13.644 23.7875 12.7808 22.7275 12.7808C21.6675 12.7808 20.8055 13.644 20.8055 14.7041C20.8055 15.2842 20.3355 15.7539 19.7555 15.7539C19.1755 15.7539 18.7055 15.2842 18.7055 14.7041C18.7055 12.4858 20.5105 10.6821 22.7275 10.6821C24.9465 10.6821 26.7505 12.4858 26.7505 14.7041C26.7505 15.2842 26.2805 15.7539 25.7005 15.7539Z" fill="#435549"/>
</svg>
