<svg width="92" height="86" viewBox="0 0 92 86" fill="none" xmlns="http://www.w3.org/2000/svg">
<path d="M91.8594 42.6492C91.8594 66.2037 71.2956 85.2979 45.9297 85.2979C20.5628 85.2979 0 66.2037 0 42.6492C0 19.0951 20.5628 0 45.9297 0C71.2956 0 91.8594 19.0951 91.8594 42.6492Z" fill="#F7F2E5"/>
<path fill-rule="evenodd" clip-rule="evenodd" d="M35.9541 25.051C26.9316 25.051 23.7202 32.4098 28.5158 41.129C32.4584 48.337 30.6298 47.0538 31.6453 53.7339C32.4186 58.9048 37.2141 65.0937 39.327 64.1875C40.1002 63.8476 40.7905 62.5649 41.0749 60.9795V52.753C41.0749 44.2228 50.7887 44.3736 50.7887 52.753V60.8667C50.8705 61.8857 51.7235 65.2446 54.0001 63.9619C56.4383 62.6025 59.5678 58.0737 60.2183 53.7339C61.2349 47.0538 59.4052 48.337 63.3478 41.129C70.2573 28.5607 60.34 20.9368 46.3184 27.4279C46.0739 27.5417 45.7897 27.5417 45.5872 27.4279C42.1723 25.843 38.8403 25.051 35.9541 25.051ZM38.8801 65.7724C35.3037 65.7724 30.7924 59.0928 30.0203 53.9595C29.0036 47.1666 30.8333 48.7149 27.0942 41.8448C19.5741 28.1081 30.5479 19.05 45.9113 25.9187C61.2747 19.05 72.2895 28.1081 64.7704 41.8448C61.0313 48.6759 62.86 47.129 61.8444 53.9595C61.0313 59.4697 55.6661 67.2446 51.8462 65.5469C49.854 64.6787 49.1637 61.5835 49.1637 60.9048V52.753C49.1637 46.3736 42.701 46.2227 42.701 52.753L42.6601 61.1309C42.4975 62.3389 41.6036 65.7724 38.8801 65.7724Z" fill="#435549"/>
<path fill-rule="evenodd" clip-rule="evenodd" d="M60.9906 36.3347C60.5437 36.3347 60.1775 35.9949 60.1775 35.5798C60.1775 32.5608 57.4949 30.1072 54.2437 30.1072C53.1873 30.1072 53.1873 28.5979 54.2437 28.5979C58.3899 28.5979 61.8037 31.7307 61.8037 35.5798C61.8037 35.9949 61.4376 36.3347 60.9906 36.3347Z" fill="#435549"/>
</svg>
