<svg width="92" height="86" viewBox="0 0 92 86" fill="none" xmlns="http://www.w3.org/2000/svg">
<path d="M91.8594 42.6489C91.8594 66.2041 71.2956 85.2979 45.9297 85.2979C20.5628 85.2979 0 66.2041 0 42.6489C0 19.0952 20.5628 0 45.9297 0C71.2956 0 91.8594 19.0952 91.8594 42.6489Z" fill="#F7F2E5"/>
<path fill-rule="evenodd" clip-rule="evenodd" d="M35.9541 23.0238C26.9316 23.0238 23.7202 30.3827 28.5158 39.1019C32.4584 46.3099 30.6298 45.0267 31.6453 51.7069C32.4186 56.8778 37.2141 63.0667 39.327 62.161C40.1002 61.8207 40.7905 60.5379 41.0749 58.953V50.7259C41.0749 42.1957 50.7887 42.347 50.7887 50.7259V58.8397C50.8705 59.8587 51.7235 63.2176 54.0001 61.9349C56.4383 60.576 59.5678 56.0467 60.2183 51.7069C61.2349 45.0267 59.4052 46.3099 63.3478 39.1019C70.2573 26.534 60.34 18.91 46.3184 25.4007C46.0739 25.515 45.7897 25.515 45.5872 25.4007C42.1723 23.8158 38.8403 23.0238 35.9541 23.0238ZM38.8801 63.7459C35.3037 63.7459 30.7924 57.0658 30.0203 51.933C29.0036 45.14 30.8333 46.6878 27.0942 39.8177C19.5741 26.0809 30.5479 17.0228 45.9113 23.8919C61.2747 17.0228 72.2895 26.0809 64.7704 39.8177C61.0313 46.6488 62.86 45.1019 61.8444 51.933C61.0313 57.4427 55.6661 65.2176 51.8462 63.5199C49.854 62.6507 49.1637 59.557 49.1637 58.8778V50.7259C49.1637 44.347 42.701 44.1957 42.701 50.7259L42.6601 59.1039C42.4975 60.3119 41.6036 63.7459 38.8801 63.7459Z" fill="#435549"/>
<path d="M36.646 34.6489H26.1363C25.7012 34.6489 25.3491 34.3218 25.3491 33.918C25.3491 33.5142 25.7012 33.187 26.1363 33.187H36.646C37.0811 33.187 37.4332 33.5142 37.4332 33.918C37.4332 34.3218 37.0811 34.6489 36.646 34.6489Z" fill="#435549"/>
<path d="M36.6459 38.0469H27.2304C26.7954 38.0469 26.4432 37.7202 26.4432 37.3159C26.4432 36.9121 26.7954 36.585 27.2304 36.585H36.6459C37.0811 36.585 37.4332 36.9121 37.4332 37.3159C37.4332 37.7202 37.0811 38.0469 36.6459 38.0469Z" fill="#435549"/>
<path d="M65.3595 34.6489H54.8497C54.4147 34.6489 54.0626 34.3218 54.0626 33.918C54.0626 33.5142 54.4147 33.187 54.8497 33.187H65.3595C65.7945 33.187 66.1467 33.5142 66.1467 33.918C66.1467 34.3218 65.7945 34.6489 65.3595 34.6489Z" fill="#435549"/>
<path d="M64.2661 38.0469H54.8494C54.4144 38.0469 54.0623 37.7202 54.0623 37.3159C54.0623 36.9121 54.4144 36.585 54.8494 36.585H64.2661C64.7011 36.585 65.0533 36.9121 65.0533 37.3159C65.0533 37.7202 64.7011 38.0469 64.2661 38.0469Z" fill="#435549"/>
<path d="M38.4158 39.3872H53.4443V31.8462H38.4158V39.3872ZM54.2315 40.8501H37.6286C37.1935 40.8501 36.8403 40.522 36.8403 40.1191V31.1152C36.8403 30.7109 37.1935 30.3838 37.6286 30.3838H54.2315C54.6666 30.3838 55.0187 30.7109 55.0187 31.1152V40.1191C55.0187 40.522 54.6666 40.8501 54.2315 40.8501Z" fill="#435549"/>
<path d="M53.841 36.3481H38.0189C37.5838 36.3481 37.2316 36.021 37.2316 35.6172C37.2316 35.2129 37.5838 34.8862 38.0189 34.8862H53.841C54.2761 34.8862 54.6282 35.2129 54.6282 35.6172C54.6282 36.021 54.2761 36.3481 53.841 36.3481Z" fill="#435549"/>
<path d="M42.6433 39.082C42.2082 39.082 41.8561 38.7549 41.8561 38.3511V33.1353C41.8561 32.731 42.2082 32.4038 42.6433 32.4038C43.0783 32.4038 43.4305 32.731 43.4305 33.1353V38.3511C43.4305 38.7549 43.0783 39.082 42.6433 39.082Z" fill="#435549"/>
<path d="M49.2154 39.082C48.7803 39.082 48.4282 38.7549 48.4282 38.3511V33.1353C48.4282 32.731 48.7803 32.4038 49.2154 32.4038C49.6505 32.4038 50.0027 32.731 50.0027 33.1353V38.3511C50.0027 38.7549 49.6505 39.082 49.2154 39.082Z" fill="#435549"/>
</svg>
