<svg width="92" height="86" viewBox="0 0 92 86" fill="none" xmlns="http://www.w3.org/2000/svg">
<path d="M91.8594 42.6492C91.8594 66.2037 71.2955 85.2979 45.9297 85.2979C20.5628 85.2979 0 66.2037 0 42.6492C0 19.0951 20.5628 0 45.9297 0C71.2955 0 91.8594 19.0951 91.8594 42.6492Z" fill="#F7F2E5"/>
<path d="M65.7022 35.4451C64.566 35.4451 63.641 36.304 63.641 37.3592V41.4099C63.641 41.6902 63.8865 41.9187 64.1881 41.9187H67.2164C67.5179 41.9187 67.7635 41.6902 67.7635 41.4099V37.3592C67.7635 36.304 66.8384 35.4451 65.7022 35.4451ZM67.2164 43.3811H64.1881C63.0185 43.3811 62.0665 42.4968 62.0665 41.4099V37.3592C62.0665 35.4969 63.697 33.9832 65.7022 33.9832C67.7075 33.9832 69.3379 35.4969 69.3379 37.3592V41.4099C69.3379 42.4968 68.3859 43.3811 67.2164 43.3811Z" fill="#435549"/>
<path d="M62.8534 37.677C62.4183 37.677 62.0662 37.3499 62.0662 36.946C62.0662 35.6629 60.9408 34.6179 59.5591 34.6179C58.1774 34.6179 57.0531 35.6629 57.0531 36.946C57.0531 37.3499 56.701 37.677 56.2659 37.677C55.8308 37.677 55.4787 37.3499 55.4787 36.946C55.4787 34.8557 57.3084 33.156 59.5591 33.156C61.8099 33.156 63.6407 34.8557 63.6407 36.946C63.6407 37.3499 63.2885 37.677 62.8534 37.677Z" fill="#435549"/>
<path d="M61.5184 43.3801H57.6005C56.431 43.3801 55.479 42.4959 55.479 41.4089C55.479 41.0051 55.8311 40.678 56.2662 40.678C56.7013 40.678 57.0535 41.0051 57.0535 41.4089C57.0535 41.6902 57.299 41.9177 57.6005 41.9177H61.5184C61.8199 41.9177 62.0665 41.6902 62.0665 41.4089C62.0665 41.0051 62.4187 40.678 62.8537 40.678C63.2889 40.678 63.641 41.0051 63.641 41.4089C63.641 42.4959 62.689 43.3801 61.5184 43.3801Z" fill="#435549"/>
<path d="M52.0812 33.7908C50.2084 33.7908 48.6846 35.2059 48.6846 36.9451V41.4089C48.6846 41.6887 48.9301 41.9177 49.2327 41.9177H54.9296C55.2323 41.9177 55.4789 41.6887 55.4789 41.4089V36.9451C55.4789 35.2059 53.955 33.7908 52.0812 33.7908ZM54.9296 43.3801H49.2327C48.0621 43.3801 47.1101 42.4959 47.1101 41.4089V36.9451C47.1101 34.3992 49.3404 32.3289 52.0812 32.3289C54.823 32.3289 57.0534 34.3992 57.0534 36.9451V41.4089C57.0534 42.4959 56.1014 43.3801 54.9296 43.3801Z" fill="#435549"/>
<path d="M46.5622 43.3801H40.8642C39.6946 43.3801 38.7416 42.4959 38.7416 41.4089V36.9451C38.7416 34.4002 40.9719 32.3289 43.7137 32.3289C46.4545 32.3289 48.6848 34.4002 48.6848 36.9451C48.6848 37.3489 48.3326 37.6761 47.8976 37.6761C47.4625 37.6761 47.1103 37.3489 47.1103 36.9451C47.1103 35.2059 45.5854 33.7908 43.7137 33.7908C41.8409 33.7908 40.3171 35.2059 40.3171 36.9451V41.4089C40.3171 41.6902 40.5626 41.9177 40.8642 41.9177H46.5622C46.8637 41.9177 47.1103 41.6902 47.1103 41.4089C47.1103 41.0051 47.4625 40.678 47.8976 40.678C48.3326 40.678 48.6848 41.0051 48.6848 41.4089C48.6848 42.4959 47.7328 43.3801 46.5622 43.3801Z" fill="#435549"/>
<path d="M38.1935 43.3801H34.2767C33.1061 43.3801 32.1541 42.4959 32.1541 41.4089V36.9451C32.1541 34.8558 33.9849 33.1561 36.2357 33.1561C38.4854 33.1561 40.3161 34.8558 40.3161 36.9451C40.3161 37.3489 39.964 37.6761 39.5289 37.6761C39.0938 37.6761 38.7417 37.3489 38.7417 36.9451C38.7417 35.6619 37.6174 34.618 36.2357 34.618C34.8529 34.618 33.7286 35.6619 33.7286 36.9451V41.4089C33.7286 41.6902 33.9741 41.9177 34.2767 41.9177H38.1935C38.4961 41.9177 38.7417 41.6902 38.7417 41.4089C38.7417 41.0051 39.0938 40.678 39.5289 40.678C39.964 40.678 40.3161 41.0051 40.3161 41.4089C40.3161 42.4959 39.3641 43.3801 38.1935 43.3801Z" fill="#435549"/>
<path d="M31.606 43.3801H28.5788C27.4081 43.3801 26.4561 42.4959 26.4561 41.4089V37.3592C26.4561 35.4969 28.0866 33.9832 30.0918 33.9832C32.0971 33.9832 33.7286 35.4969 33.7286 37.3592C33.7286 37.763 33.3764 38.0901 32.9414 38.0901C32.5063 38.0901 32.1541 37.763 32.1541 37.3592C32.1541 36.303 31.2291 35.4441 30.0918 35.4441C28.9557 35.4441 28.0306 36.303 28.0306 37.3592V41.4089C28.0306 41.6902 28.2772 41.9177 28.5788 41.9177H31.606C31.9075 41.9177 32.1541 41.6902 32.1541 41.4089C32.1541 41.0051 32.5063 40.678 32.9414 40.678C33.3764 40.678 33.7286 41.0051 33.7286 41.4089C33.7286 42.4959 32.7766 43.3801 31.606 43.3801Z" fill="#435549"/>
<path d="M68.174 36.5969C68.0835 36.5969 67.992 36.5828 67.9026 36.552C67.4955 36.4129 67.2844 35.9929 67.4341 35.615L68.7017 32.4002C68.9138 31.8611 68.832 31.283 68.4777 30.8108C68.1245 30.3411 67.5666 30.0711 66.9484 30.0711H28.6358C28.0177 30.0711 27.4598 30.3411 27.1066 30.8108C26.7523 31.283 26.6704 31.8611 26.8826 32.4002L28.1501 35.615C28.2998 35.9929 28.0887 36.4129 27.6817 36.552C27.2746 36.6921 26.8212 36.4968 26.6704 36.1179L25.404 32.9031C25.0184 31.9231 25.1725 30.8279 25.8154 29.9729C26.4594 29.118 27.5137 28.6092 28.6358 28.6092H66.9484C68.0706 28.6092 69.1249 29.118 69.7689 29.9729C70.4118 30.8279 70.5658 31.9231 70.1803 32.9031L68.9138 36.1179C68.7965 36.4129 68.4949 36.5969 68.174 36.5969Z" fill="#435549"/>
<path d="M25.1687 43.3802C24.8671 43.3802 24.6205 43.6092 24.6205 43.889V47.9402C24.6205 48.9949 25.5456 49.8538 26.6828 49.8538C27.819 49.8538 28.7441 48.9949 28.7441 47.9402V43.889C28.7441 43.6092 28.4974 43.3802 28.1959 43.3802H25.1687ZM26.6828 51.3162C24.6776 51.3162 23.0461 49.801 23.0461 47.9402V43.889C23.0461 42.8021 23.9981 41.9178 25.1687 41.9178H28.1959C29.3665 41.9178 30.3185 42.8021 30.3185 43.889V47.9402C30.3185 49.801 28.6881 51.3162 26.6828 51.3162Z" fill="#435549"/>
<path d="M32.8255 52.1428C30.5747 52.1428 28.7439 50.4431 28.7439 48.3528C28.7439 47.949 29.0961 47.6219 29.5312 47.6219C29.9663 47.6219 30.3184 47.949 30.3184 48.3528C30.3184 49.637 31.4438 50.6809 32.8255 50.6809C34.2072 50.6809 35.3315 49.637 35.3315 48.3528C35.3315 47.949 35.6836 47.6219 36.1187 47.6219C36.5538 47.6219 36.9059 47.949 36.9059 48.3528C36.9059 50.4431 35.0762 52.1428 32.8255 52.1428Z" fill="#435549"/>
<path d="M36.1188 44.6199C35.6838 44.6199 35.3316 44.2927 35.3316 43.8889C35.3316 43.6082 35.085 43.3801 34.7835 43.3801H30.8667C30.5651 43.3801 30.3185 43.6082 30.3185 43.8889C30.3185 44.2927 29.9663 44.6199 29.5313 44.6199C29.0962 44.6199 28.7441 44.2927 28.7441 43.8889C28.7441 42.802 29.6961 41.9177 30.8667 41.9177H34.7835C35.954 41.9177 36.906 42.802 36.906 43.8889C36.906 44.2927 36.5539 44.6199 36.1188 44.6199Z" fill="#435549"/>
<path d="M37.4546 43.3802C37.152 43.3802 36.9065 43.6092 36.9065 43.889V48.3528C36.9065 50.0921 38.4303 51.5071 40.3031 51.5071C42.1759 51.5071 43.6997 50.0921 43.6997 48.3528V43.889C43.6997 43.6092 43.4542 43.3802 43.1516 43.3802H37.4546ZM40.3031 52.969C37.5612 52.969 35.332 50.8992 35.332 48.3528V43.889C35.332 42.8021 36.284 41.9178 37.4546 41.9178H43.1516C44.3222 41.9178 45.2753 42.8021 45.2753 43.889V48.3528C45.2753 50.8992 43.0449 52.969 40.3031 52.969Z" fill="#435549"/>
<path d="M48.6715 52.969C45.9307 52.969 43.7004 50.8992 43.7004 48.3528C43.7004 47.949 44.0525 47.6228 44.4876 47.6228C44.9227 47.6228 45.2748 47.949 45.2748 48.3528C45.2748 50.0921 46.7987 51.5071 48.6715 51.5071C50.5442 51.5071 52.0681 50.0921 52.0681 48.3528V43.8899C52.0681 43.6092 51.8225 43.3812 51.5199 43.3812H45.823C45.5204 43.3812 45.2748 43.6092 45.2748 43.8899C45.2748 44.2928 44.9227 44.6199 44.4876 44.6199C44.0525 44.6199 43.7004 44.2928 43.7004 43.8899C43.7004 42.8021 44.6524 41.9178 45.823 41.9178H51.5199C52.6905 41.9178 53.6425 42.8021 53.6425 43.8899V48.3528C53.6425 50.8992 51.4122 52.969 48.6715 52.969Z" fill="#435549"/>
<path d="M56.1495 52.1428C53.8987 52.1428 52.0679 50.4431 52.0679 48.3528C52.0679 47.949 52.4201 47.6219 52.8552 47.6219C53.2902 47.6219 53.6424 47.949 53.6424 48.3528C53.6424 49.637 54.7678 50.6809 56.1495 50.6809C57.5312 50.6809 58.6565 49.637 58.6565 48.3528V43.8899C58.6565 43.6092 58.41 43.3802 58.1073 43.3802H54.1916C53.889 43.3802 53.6424 43.6092 53.6424 43.8899C53.6424 44.2928 53.2902 44.6209 52.8552 44.6209C52.4201 44.6209 52.0679 44.2928 52.0679 43.8899C52.0679 42.803 53.02 41.9178 54.1916 41.9178H58.1073C59.279 41.9178 60.231 42.803 60.231 43.8899V48.3528C60.231 50.4431 58.4003 52.1428 56.1495 52.1428Z" fill="#435549"/>
<path d="M62.2925 51.3162C60.2873 51.3162 58.6568 49.801 58.6568 47.9402C58.6568 47.5359 59.0089 47.2088 59.444 47.2088C59.8791 47.2088 60.2313 47.5359 60.2313 47.9402C60.2313 48.9949 61.1563 49.8538 62.2925 49.8538C63.4286 49.8538 64.3537 48.9949 64.3537 47.9402V43.889C64.3537 43.6082 64.1082 43.3802 63.8056 43.3802H60.7783C60.4768 43.3802 60.2313 43.6082 60.2313 43.889C60.2313 44.2928 59.8791 44.6199 59.444 44.6199C59.0089 44.6199 58.6568 44.2928 58.6568 43.889C58.6568 42.8021 59.6088 41.9178 60.7783 41.9178H63.8056C64.9762 41.9178 65.9282 42.8021 65.9282 43.889V47.9402C65.9282 49.801 64.2977 51.3162 62.2925 51.3162Z" fill="#435549"/>
<path d="M63.7485 56.6901H25.4369C24.3137 56.6901 23.2594 56.1798 22.6154 55.3248C21.9725 54.4699 21.8185 53.3747 22.204 52.3957L23.4716 49.1818C23.6202 48.8019 24.0735 48.6071 24.4817 48.7467C24.8898 48.8849 25.0999 49.3049 24.9502 49.6838L23.6837 52.8976C23.4716 53.4376 23.5523 54.0167 23.9066 54.487C24.2609 54.9577 24.8188 55.2277 25.4369 55.2277H63.7485C64.3666 55.2277 64.9245 54.9577 65.2788 54.487C65.6331 54.0167 65.7139 53.4376 65.5017 52.8976L64.2352 49.6838C64.0855 49.3049 64.2955 48.8849 64.7037 48.7467C65.1097 48.6071 65.5642 48.8019 65.7139 49.1818L66.9814 52.3957C67.3659 53.3747 67.2129 54.4699 66.57 55.3248C65.926 56.1798 64.8717 56.6901 63.7485 56.6901Z" fill="#435549"/>
<path d="M18.2171 39.1511C18.0158 39.1511 17.8144 39.0798 17.6603 38.9368L14.8453 36.322C14.5373 36.0369 14.5373 35.574 14.8453 35.2879C15.1533 35.0042 15.6508 35.0032 15.9588 35.2888L18.7739 37.9031C19.0808 38.1877 19.0808 38.6511 18.7739 38.9368C18.6199 39.0798 18.4185 39.1511 18.2171 39.1511Z" fill="#435549"/>
<path d="M21.0485 40.22C20.6134 40.22 20.2612 39.8928 20.2612 39.489V34.5501C20.2612 34.1458 20.6134 33.8191 21.0485 33.8191C21.4835 33.8191 21.8357 34.1458 21.8357 34.5501V39.489C21.8357 39.8928 21.4835 40.22 21.0485 40.22Z" fill="#435549"/>
<path d="M19.3691 41.78H14.0513C13.6162 41.78 13.263 41.4529 13.263 41.0491C13.263 40.6448 13.6162 40.3181 14.0513 40.3181H19.3691C19.8042 40.3181 20.1564 40.6448 20.1564 41.0491C20.1564 41.4529 19.8042 41.78 19.3691 41.78Z" fill="#435549"/>
<path d="M76.4562 49.4729C76.2548 49.4729 76.0534 49.4021 75.8994 49.259L73.0843 46.6438C72.7763 46.3591 72.7763 45.8958 73.0843 45.6101C73.3923 45.326 73.8898 45.325 74.1979 45.6111L77.0129 48.2249C77.3198 48.511 77.3198 48.9729 77.0129 49.259C76.8589 49.4021 76.6575 49.4729 76.4562 49.4729Z" fill="#435549"/>
<path d="M77.8081 44.2288H72.4892C72.0541 44.2288 71.702 43.9021 71.702 43.4978C71.702 43.094 72.0541 42.7669 72.4892 42.7669H77.8081C78.2432 42.7669 78.5954 43.094 78.5954 43.4978C78.5954 43.9021 78.2432 44.2288 77.8081 44.2288Z" fill="#435549"/>
<path d="M70.8098 50.7278C70.3747 50.7278 70.0225 50.4011 70.0225 49.9968V45.0579C70.0225 44.6541 70.3747 44.3269 70.8098 44.3269C71.2448 44.3269 71.597 44.6541 71.597 45.0579V49.9968C71.597 50.4011 71.2448 50.7278 70.8098 50.7278Z" fill="#435549"/>
</svg>
