<svg width="65" height="65" viewBox="0 0 65 65" fill="none" xmlns="http://www.w3.org/2000/svg">
<path d="M27.5271 29.6907C29.0557 29.6907 30.7002 31.1141 30.7002 34.2393V40.4198C30.7034 40.8313 31.1552 42.7081 32.0836 43.1424C32.2147 43.2064 32.5939 43.3873 33.3132 42.9991C35.2404 41.9602 37.4591 38.0907 37.8773 35.0359C38.1081 33.3665 38.1232 32.3958 38.1362 31.6156C38.1654 29.8282 38.2652 29.0342 40.0256 25.5716C42.2139 21.2652 42.1619 17.3059 39.8858 14.98C37.3996 12.4404 32.8127 12.3293 27.9128 14.6885C27.6723 14.8033 27.3917 14.8033 27.1512 14.6885C22.2578 12.3314 17.6785 12.4414 15.1999 14.9736C12.926 17.2985 12.8761 21.2599 15.0677 25.5726C16.8281 29.0548 16.9278 29.8488 16.9571 31.6341C16.969 32.4106 16.9852 33.375 17.2149 35.0349C17.7284 38.7112 20.688 43.2323 22.5828 43.2323C23.743 43.2323 24.2544 41.3286 24.3648 40.5314L24.393 34.2351C24.393 31.1141 26.017 29.6907 27.5271 29.6907ZM32.5061 44.998C32.0273 44.998 31.6319 44.8759 31.3307 44.7314C29.384 43.8184 28.943 40.9149 28.943 40.4198V34.2393C28.943 32.426 28.2129 31.449 27.5271 31.449C26.8598 31.449 26.1502 32.426 26.1502 34.2393L26.122 40.5954C26.122 40.6314 26.1199 40.6658 26.1155 40.7007C25.9162 42.2929 24.9477 44.9896 22.5828 44.9896C19.3003 44.9896 16.008 39.0974 15.474 35.2771C15.2291 33.5104 15.2118 32.4434 15.1988 31.6632C15.175 30.2085 15.1674 29.6637 13.5001 26.3666C10.9511 21.352 11.1168 16.633 13.9443 13.7438C16.8975 10.7255 22.0768 10.4224 27.5325 12.9249C32.9936 10.4202 38.1807 10.7255 41.1424 13.7517C43.97 16.6409 44.139 21.3578 41.5921 26.3693C39.927 29.6452 39.9183 30.1488 39.8934 31.6436C39.8814 32.4281 39.8641 33.5019 39.6182 35.2761C39.1762 38.5044 36.8199 43.1064 34.1463 44.5463C33.5288 44.8801 32.9774 44.998 32.5061 44.998Z" fill="#F7F2E5"/>
<path d="M1.75736 52.4893H52.4335V1.81335H1.75736V52.4893ZM53.3132 54.2466H0.878738C0.393407 54.2466 0.000183105 53.853 0.000183105 53.368V0.934731C0.000183105 0.448078 0.393407 0.0561104 0.878738 0.0561104H53.3132C53.7985 0.0561104 54.1918 0.448078 54.1918 0.934731V53.368C54.1918 53.853 53.7985 54.2466 53.3132 54.2466Z" fill="#F7F2E5"/>
<path d="M63.9972 64.2654C63.7687 64.2654 63.5434 64.1755 63.3765 64.0083L52.6916 53.3236C52.3482 52.9803 52.3482 52.4233 52.6916 52.08C53.035 51.7378 53.5908 51.7378 53.9342 52.08L63.1187 61.2645V11.9834L52.6916 1.55635C52.3482 1.21305 52.3482 0.656044 52.6916 0.31274C53.035 -0.0295029 53.5908 -0.0295029 53.9342 0.31274L64.618 10.998C64.7838 11.1625 64.8759 11.3868 64.8759 11.6195V63.3857C64.8759 63.7417 64.6614 64.0628 64.3331 64.1982C64.2248 64.2437 64.111 64.2654 63.9972 64.2654Z" fill="#F7F2E5"/>
<path d="M63.9973 64.2654H9.48068C9.22393 64.2654 8.98021 64.1538 8.81338 63.9586L0.211712 53.9409C-0.104613 53.5717 -0.0613032 53.0168 0.307059 52.7005C0.672116 52.3852 1.22787 52.4265 1.54637 52.7957L9.88481 62.5071H63.9973C64.4826 62.5071 64.8759 62.9012 64.8759 63.3857C64.8759 63.8718 64.4826 64.2654 63.9973 64.2654Z" fill="#F7F2E5"/>
</svg>
