<svg width="86" height="86" viewBox="0 0 86 86" fill="none" xmlns="http://www.w3.org/2000/svg">
<path d="M85.608 42.8037C85.608 66.4438 66.444 85.6079 42.804 85.6079C19.164 85.6079 0 66.4438 0 42.8037C0 19.1636 19.164 0 42.804 0C66.444 0 85.608 19.1636 85.608 42.8037Z" fill="#B9CEBE"/>
<path d="M38.2827 46.9346C38.5887 46.9346 38.8797 47.0688 39.0787 47.3008C39.2787 47.5337 39.3667 47.8418 39.3197 48.1436L36.4867 66.5547C36.4947 66.5439 36.5047 66.5317 36.5147 66.5176L57.0577 38.6719L44.8387 38.6748C44.5327 38.6748 44.2407 38.541 44.0417 38.3086C43.8427 38.0757 43.7547 37.7676 43.8017 37.4658L46.6327 19.0776L26.0637 46.938L38.2827 46.9346ZM36.4787 68.6938C36.2537 68.6938 36.0227 68.6558 35.7907 68.5796C34.8307 68.2637 34.2447 67.3076 34.3997 66.3066L37.0577 49.0337L26.0457 49.0278C25.2727 49.0278 24.5687 48.605 24.2057 47.9258C23.8227 47.2065 23.8867 46.3506 24.3747 45.6909L44.9867 17.7529C45.5607 16.9746 46.5557 16.7026 47.4647 17.0786C48.3647 17.4517 48.8647 18.3828 48.7077 19.397L46.0627 36.5757L57.0767 36.5815C57.8407 36.5815 58.5587 37.0098 58.9097 37.6689C59.2957 38.3979 59.2337 39.2598 58.7477 39.9189L38.2047 67.7646C37.7577 68.3706 37.1417 68.6938 36.4787 68.6938Z" fill="#435549"/>
</svg>
