<svg width="92" height="86" viewBox="0 0 92 86" fill="none" xmlns="http://www.w3.org/2000/svg">
<path d="M91.8594 42.6489C91.8594 66.2041 71.2955 85.2979 45.9297 85.2979C20.5628 85.2979 0 66.2041 0 42.6489C0 19.0952 20.5628 0 45.9297 0C71.2955 0 91.8594 19.0952 91.8594 42.6489Z" fill="#F7F2E5"/>
<path d="M35.7551 14.2349C32.2422 14.2349 29.2818 15.3062 27.3325 17.3872C24.1954 20.7368 24.2234 25.9971 27.409 31.8169C28.991 34.7231 29.6662 36.251 29.9301 37.623L61.9351 37.5898C62.199 36.2231 62.8742 34.7041 64.4551 31.8169C67.6364 26.0049 67.6612 20.749 64.5219 17.3979C61.4215 14.0869 55.7741 13.3232 49.4149 15.3521C47.1576 16.0718 44.6678 16.0718 42.4073 15.3511C40.0617 14.603 37.8132 14.2349 35.7551 14.2349ZM29.229 39.1172C28.8144 39.1172 28.4687 38.8252 28.4288 38.4419C28.3061 37.2612 27.8936 36.0161 25.9734 32.4922C22.4778 26.103 22.5305 20.2402 26.1199 16.4072C29.6565 12.6309 35.9404 11.709 42.9296 13.939C44.853 14.5522 46.9702 14.5522 48.8925 13.939C55.8925 11.7051 62.1904 12.6318 65.7356 16.418C69.3261 20.252 69.3821 26.1108 65.8896 32.4932C63.9727 35.9951 63.5591 37.2329 63.4353 38.4092C63.3955 38.791 63.0498 39.083 62.6362 39.083L29.2301 39.1172H29.229Z" fill="#435549"/>
<path fill-rule="evenodd" clip-rule="evenodd" d="M28.602 24.4468C28.602 20.5151 32.0891 17.3159 36.3225 17.3159C37.4026 17.3159 37.4026 18.8579 36.3225 18.8579C33.0023 18.8579 30.2626 21.3643 30.2626 24.4468C30.2626 24.8711 29.8889 25.2178 29.4323 25.2178C28.9757 25.2178 28.602 24.8711 28.602 24.4468Z" fill="#435549"/>
<path d="M35.752 43.7651H56.1069V39.1182H35.752V43.7651ZM56.9103 45.2578H34.9486C34.5039 45.2578 34.1442 44.9238 34.1442 44.5112V38.3711C34.1442 37.958 34.5039 37.624 34.9486 37.624H56.9103C57.3551 37.624 57.7148 37.958 57.7148 38.3711V44.5112C57.7148 44.9238 57.3551 45.2578 56.9103 45.2578Z" fill="#435549"/>
<path d="M49.8896 72.5581H41.9688C41.6457 72.5581 41.3528 72.377 41.2268 72.1001L38.9739 67.1001C38.9329 67.0112 38.9125 66.9141 38.9114 66.8169C38.7854 45.418 38.8985 45.104 38.9523 44.9531C39.0923 44.562 39.5479 44.3491 39.9689 44.48C40.3534 44.5991 40.5763 44.959 40.5074 45.3179C40.4299 46.2041 40.4708 58.4741 40.5192 66.6602L42.5051 71.0649H49.3543L51.3402 66.6602C51.3876 58.4751 51.4285 46.2051 51.3509 45.3179C51.282 44.959 51.506 44.5991 51.8894 44.48C52.3105 44.3501 52.766 44.562 52.906 44.9531C52.9609 45.104 53.0729 45.418 52.9469 66.8169C52.9469 66.9141 52.9254 67.0112 52.8855 67.1001L50.6316 72.1001C50.5056 72.377 50.2137 72.5581 49.8896 72.5581Z" fill="#435549"/>
<path d="M55.5136 53.5459C55.4511 53.5459 55.3887 53.54 55.3262 53.5249L36.1591 49.2632C35.7262 49.167 35.4602 48.7642 35.5636 48.3628C35.668 47.9629 36.101 47.7139 36.5328 47.811L55.6999 52.0732C56.1317 52.1689 56.3988 52.5718 56.2954 52.9731C56.206 53.3159 55.8776 53.5459 55.5136 53.5459Z" fill="#435549"/>
<path d="M55.5136 58.6929C55.4511 58.6929 55.3887 58.687 55.3262 58.6719L36.1591 54.4102C35.7262 54.3149 35.4602 53.9111 35.5636 53.5103C35.668 53.1099 36.101 52.8608 36.5328 52.958L55.6999 57.2202C56.1317 57.3159 56.3988 57.7192 56.2954 58.1201C56.206 58.4629 55.8776 58.6929 55.5136 58.6929Z" fill="#435549"/>
<path d="M55.5136 63.8408C55.4511 63.8408 55.3887 63.835 55.3262 63.8198L36.1591 59.5581C35.7262 59.4629 35.4602 59.0591 35.5636 58.6582C35.668 58.2578 36.101 58.0088 36.5328 58.106L55.6999 62.3682C56.1317 62.4639 56.3988 62.8672 56.2954 63.2681C56.2071 63.6108 55.8776 63.8408 55.5136 63.8408Z" fill="#435549"/>
<path d="M55.5136 68.9878C55.4511 68.9878 55.3887 68.9819 55.3262 68.9668L36.1591 64.7061C35.7262 64.6099 35.4602 64.207 35.5636 63.8052C35.668 63.4048 36.101 63.1562 36.5328 63.2529L55.6999 67.5151C56.1317 67.6108 56.3988 68.0142 56.2954 68.415C56.2071 68.7578 55.8776 68.9878 55.5136 68.9878Z" fill="#435549"/>
</svg>
