<svg width="92" height="86" viewBox="0 0 92 86" fill="none" xmlns="http://www.w3.org/2000/svg">
<path d="M91.8594 42.6492C91.8594 66.2037 71.2958 85.2979 45.9303 85.2979C20.5636 85.2979 0 66.2037 0 42.6492C0 19.0951 20.5636 0 45.9303 0C71.2958 0 91.8594 19.0951 91.8594 42.6492Z" fill="#F7F2E5"/>
<path d="M61.4335 53.685C61.8513 49.6142 61.1212 49.372 62.8141 45.8452C63.4851 45.977 63.8867 46.125 64.3185 46.2929C64.6836 46.435 65.0971 46.5952 65.6991 46.7509C69.8431 47.83 71.3195 49.0209 71.3195 49.7763C71.3195 51.0541 67.7527 52.6381 61.4335 53.685ZM59.7611 53.9413C56.9913 54.329 53.7767 54.6161 50.1658 54.7431V54.1821C50.1658 45.8042 40.452 45.6533 40.452 54.1821V54.6923C36.7938 54.5209 33.5695 54.1869 30.8374 53.7533C30.314 49.1142 31.2972 49.1284 28.7601 44.1943C33.0914 45.0322 38.8302 45.5591 45.9292 45.5591C52.3078 45.5591 57.5847 45.1333 61.7328 44.438C59.3206 49.1943 60.3264 49.1821 59.7611 53.9413ZM53.3771 65.391C51.5916 66.3968 50.6816 64.5492 50.3327 63.2132C50.2143 62.7582 50.1658 62.2899 50.1658 61.8221V56.2113C53.6905 56.0981 56.8158 55.8461 59.536 55.4862C58.7832 59.726 55.7549 64.0663 53.3771 65.391ZM48.5396 54.788C47.6888 54.8061 46.8209 54.8173 45.9292 54.8173C44.5991 54.8173 43.3166 54.7939 42.0749 54.7543L42.0771 54.1821C42.0771 47.6533 48.5396 47.8042 48.5396 54.1821V54.788ZM40.452 61.7401C40.452 62.2543 40.396 62.7709 40.2506 63.2679C39.905 64.4442 39.3309 65.3421 38.7041 65.618C36.6096 66.515 31.8873 60.4472 31.0506 55.3061C33.745 55.7143 36.8832 56.0131 40.452 56.164V61.7401ZM20.5399 49.7763C20.5399 49.4833 20.8253 48.434 24.4846 47.2392C25.7629 46.8222 26.408 46.6142 28.0169 46.31C29.4158 49.3813 28.8084 49.8002 29.1596 53.4633C23.6307 52.4223 20.5399 50.9662 20.5399 49.7763ZM26.5932 31.252L27.0821 31.5113C27.3708 31.6641 27.5807 31.9244 27.6594 32.2251L29.3081 38.603C29.3921 38.9321 29.7077 39.1631 30.0706 39.1641H30.0739C30.4356 39.1641 30.7513 38.9351 30.8384 38.6094L32.4915 32.4063C32.5691 32.1192 32.7607 31.875 33.03 31.7203L37.3387 29.2462C37.5799 29.1085 37.722 28.8604 37.7124 28.5982C37.7027 28.335 37.5401 28.0982 37.2902 27.9761L34.3168 26.5343C34.6518 26.5123 34.9791 26.4801 35.3313 26.4801C38.2164 26.4801 41.5494 27.273 44.9632 28.8585C45.1668 28.9722 45.451 28.9722 45.6945 28.8585C59.7169 22.3673 69.6342 29.9903 62.7247 42.5581C62.6849 42.6304 62.6558 42.688 62.617 42.7583C58.3783 43.5493 52.7213 44.0971 45.9292 44.0971C38.366 44.0971 32.2115 43.417 27.8533 42.479C25.6111 38.3652 25.4625 34.1641 26.5932 31.252ZM20.5399 39.0571C20.5399 38.772 20.8178 37.7774 24.1658 36.6294C24.3823 38.294 24.9208 40.0913 25.82 41.9902C22.4019 41.064 20.5399 39.98 20.5399 39.0571ZM27.7746 27.2403C28.494 26.8912 29.0131 26.2691 29.1973 25.5343L30.0739 22.0401L30.9494 25.5343C31.1336 26.2681 31.6515 26.8902 32.372 27.2403L35.3356 28.6773L32.2018 30.4761C31.5804 30.8331 31.141 31.3931 30.9633 32.0542L30.0857 35.3472L29.1897 31.8834C29.0109 31.1915 28.5263 30.5923 27.8618 30.2403L24.8627 28.6524L27.7746 27.2403ZM71.3195 39.0571C71.3195 40.1011 68.9406 41.3491 64.6255 42.3423C65.6991 40.168 66.3043 38.1221 66.4949 36.25C70.0326 37.2681 71.3195 38.3521 71.3195 39.0571ZM66.1234 45.3432C65.614 45.2114 65.2791 45.081 64.9258 44.9443C64.5274 44.789 64.1117 44.6323 63.4958 44.4883C63.5637 44.3584 63.6477 44.206 63.7209 44.0683C69.7785 42.813 72.894 40.9292 72.894 39.0571C72.894 37.3462 70.7499 35.8994 66.5596 34.7491C66.4207 26.8253 58.3805 22.6412 47.6932 26.3892C46.1435 26.9322 44.4334 26.9322 42.8837 26.3892C38.9831 25.0201 35.4401 24.7135 32.5023 25.2545C32.4969 25.2364 32.4872 25.2213 32.4828 25.2032L30.8407 18.6495C30.7577 18.3185 30.44 18.0841 30.0739 18.0841C29.7077 18.0841 29.39 18.3185 29.3071 18.6495L27.6637 25.2032C27.584 25.5211 27.3579 25.7911 27.0456 25.9434L22.8564 27.9761C22.6012 28.1002 22.4386 28.3433 22.4343 28.6104C22.4289 28.8785 22.5807 29.126 22.8305 29.2593L25.0554 30.438C24.378 31.7974 24.0291 33.376 24.055 35.1284C24.0237 35.1343 23.9926 35.1304 23.9623 35.1402C20.6466 36.2222 18.9655 37.5391 18.9655 39.0571C18.9655 40.7783 21.5953 42.5102 26.7268 43.7534C26.9572 44.1841 27.1651 44.581 27.3503 44.9443C25.876 45.2363 25.1815 45.4614 23.9623 45.8593C20.6466 46.9423 18.9655 48.2592 18.9655 49.7763C18.9655 51.769 22.4946 53.7763 29.3469 55.0219C29.3652 55.1479 29.3771 55.2582 29.3965 55.3901C30.1686 60.5219 34.6808 67.203 38.2573 67.203C40.5404 67.203 41.5376 64.7889 41.8962 63.2972C41.9952 62.8832 42.0373 62.4598 42.0394 62.036L42.0674 56.2221C43.309 56.2582 44.5917 56.2792 45.9292 56.2792C46.823 56.2792 47.69 56.268 48.5396 56.2519V62.3339C48.5396 63.014 49.231 66.1083 51.2222 66.9769C55.0432 68.6751 60.4072 60.9003 61.2203 55.3901C61.2288 55.3363 61.2332 55.2929 61.2407 55.2402C68.9321 54.019 72.894 51.8891 72.894 49.7763C72.894 48.0044 70.6163 46.5122 66.1234 45.3432Z" fill="#435549"/>
<path d="M59.5543 37.011C59.5543 37.426 59.9204 37.7659 60.3674 37.7659C60.8142 37.7659 61.1804 37.426 61.1804 37.011C61.1804 33.1609 57.7655 30.0291 53.6205 30.0291C52.5641 30.0291 52.5641 31.5389 53.6205 31.5389C56.8717 31.5389 59.5543 33.992 59.5543 37.011Z" fill="#435549"/>
</svg>
