<svg width="159" height="36" viewBox="0 0 159 36" fill="none" xmlns="http://www.w3.org/2000/svg">
<path d="M48.8062 13.5095H58.3484C58.6611 13.5095 58.8524 13.3135 58.8524 12.9939V12.1403C58.8524 11.8022 58.6611 11.6248 58.3484 11.6248H51.9864C51.6214 11.6248 51.4823 11.3754 51.709 11.0739L58.4352 1.82874C58.5911 1.59747 58.6611 1.42001 58.6611 1.1538V1.02853C58.6611 0.708932 58.4697 0.53026 58.1225 0.53026H49.1012C48.7716 0.53026 48.5972 0.726999 48.5972 1.0466V1.91748C48.5972 2.23748 48.7716 2.43301 49.1012 2.43301H54.9238C55.2888 2.43301 55.3933 2.68235 55.1851 2.98389L48.4758 12.1937C48.3367 12.4246 48.2676 12.6025 48.2676 12.8695V12.9939C48.2676 13.3316 48.4581 13.5095 48.8062 13.5095Z" fill="#F7F1E3"/>
<path d="M61.8069 7.32255C62.2587 6.39828 63.11 5.86467 64.0666 5.86467C65.0225 5.86467 65.8047 6.43361 66.1519 7.33982C66.291 7.71362 66.0828 7.96296 65.7001 7.96296L62.2241 7.94489C61.8415 7.94489 61.6156 7.67829 61.8069 7.32255ZM64.1012 13.6877C66.1174 13.6877 67.5949 12.5498 68.0989 11.0739C68.2203 10.7358 67.9944 10.5053 67.6472 10.5053H66.6737C66.3955 10.5053 66.2387 10.6471 66.0828 10.896C65.7693 11.5007 65.0916 11.8917 64.1012 11.8917C62.9195 11.8917 61.9982 11.216 61.6333 10.0789C61.5288 9.70471 61.737 9.45617 62.1196 9.45617L67.8208 9.47424C68.1512 9.47424 68.3771 9.26064 68.3771 8.94063C68.4462 6.09554 66.4301 4.08678 64.0835 4.08678C61.4242 4.08678 59.4258 6.0602 59.4258 8.83383C59.4258 11.6609 61.4419 13.6877 64.1012 13.6877Z" fill="#F7F1E3"/>
<path d="M76.9278 7.83814V12.9939C76.9278 13.3143 77.1014 13.5095 77.4319 13.5095H78.5268C78.8395 13.5095 79.0308 13.3143 79.0308 12.9939V7.73214C79.0308 5.38451 77.8314 4.08683 75.8506 4.08683C74.5813 4.08683 73.5555 4.4245 72.496 5.08258C72.1656 5.29618 71.9051 5.20664 71.8006 4.81597L71.766 4.6911C71.6792 4.40643 71.4879 4.2643 71.192 4.2643H70.7057C70.3753 4.2643 70.2017 4.46024 70.2017 4.77984V12.9939C70.2017 13.3143 70.3753 13.5095 70.7057 13.5095H71.7829C72.1133 13.5095 72.2869 13.3143 72.2869 12.9939V7.57153C72.2869 7.2692 72.4091 7.07326 72.635 6.91386C73.4864 6.38106 74.3899 5.97152 75.1898 5.97152C76.3024 5.97152 76.9278 6.68259 76.9278 7.83814Z" fill="#F7F1E3"/>
<path d="M85.6181 5.93614C87.2524 5.93614 88.3987 7.21615 88.3987 8.88723C88.3987 10.5411 87.2524 11.8383 85.6181 11.8383C83.9669 11.8383 82.8366 10.5411 82.8366 8.88723C82.8366 7.21615 83.9669 5.93614 85.6181 5.93614ZM85.6181 13.6877C88.4855 13.6877 90.5025 11.536 90.5025 8.83383C90.5025 6.16701 88.4855 4.08678 85.6181 4.08678C82.7506 4.08678 80.7336 6.16701 80.7336 8.83383C80.7336 11.536 82.7506 13.6877 85.6181 13.6877Z" fill="#F7F1E3"/>
<path d="M83.741 2.84165C83.8978 3.12632 84.1405 3.19698 84.4187 3.07292L87.5651 1.81057C87.8778 1.6857 87.9647 1.45443 87.8256 1.13443L87.426 0.299289C87.2693 -0.00264645 87.0257 -0.0913801 86.7307 0.103352L83.8109 1.91737C83.5328 2.09524 83.4806 2.34418 83.6365 2.62885L83.741 2.84165Z" fill="#F7F1E3"/>
<path d="M99.0182 7.83814V12.9939C99.0182 13.3143 99.1918 13.5095 99.5222 13.5095H100.617C100.93 13.5095 101.121 13.3143 101.121 12.9939V7.73214C101.121 5.38451 99.9225 4.08683 97.9409 4.08683C96.6716 4.08683 95.6458 4.4245 94.5863 5.08258C94.2559 5.29618 93.9954 5.20664 93.8909 4.81597L93.8564 4.6911C93.7696 4.40643 93.5782 4.2643 93.2824 4.2643H92.796C92.4656 4.2643 92.292 4.46024 92.292 4.77984V12.9939C92.292 13.3143 92.4656 13.5095 92.796 13.5095H93.8733C94.2036 13.5095 94.3773 13.3143 94.3773 12.9939V7.57153C94.3773 7.2692 94.4995 7.07326 94.7254 6.91386C95.5767 6.38106 96.4803 5.97152 97.2801 5.97152C98.3927 5.97152 99.0182 6.68259 99.0182 7.83814Z" fill="#F7F1E3"/>
<path d="M111.497 7.94414H110.298C110.107 7.94414 109.985 7.82007 109.985 7.62413V2.71688C109.985 2.52175 110.107 2.39688 110.298 2.39688H111.497C113.253 2.39688 114.574 3.53516 114.574 5.18938C114.574 6.71712 113.27 7.94414 111.497 7.94414ZM111.463 0.531063H108.421C108.004 0.531063 107.795 0.762333 107.795 1.17107V12.9939C107.795 13.3135 107.969 13.5095 108.299 13.5095H109.463C109.794 13.5095 109.985 13.3135 109.985 12.9939V10.1316C109.985 9.93562 110.107 9.81156 110.298 9.81156H111.463C114.504 9.81156 116.816 7.87347 116.816 5.18938C116.816 2.37881 114.487 0.531063 111.463 0.531063Z" fill="#F7F1E3"/>
<path d="M122.534 5.93614C124.168 5.93614 125.314 7.21615 125.314 8.88723C125.314 10.5411 124.168 11.8383 122.534 11.8383C120.883 11.8383 119.752 10.5411 119.752 8.88723C119.752 7.21615 120.883 5.93614 122.534 5.93614ZM122.534 13.6877C125.401 13.6877 127.418 11.536 127.418 8.83383C127.418 6.16701 125.401 4.08678 122.534 4.08678C119.666 4.08678 117.649 6.16701 117.649 8.83383C117.649 11.536 119.666 13.6877 122.534 13.6877Z" fill="#F7F1E3"/>
<path d="M129.712 13.5095H130.789C131.119 13.5095 131.294 13.3135 131.294 12.9939V7.57153C131.294 7.2692 131.415 7.07326 131.641 6.91386C132.493 6.38026 133.397 5.97152 134.196 5.97152C135.308 5.97152 135.934 6.68179 135.934 7.83814V12.9939C135.934 13.3135 136.108 13.5095 136.438 13.5095H137.533C137.846 13.5095 138.037 13.3135 138.037 12.9939V7.73093C138.037 5.38451 136.838 4.08683 134.856 4.08683C133.588 4.08683 132.562 4.4245 131.502 5.08177C131.171 5.29538 130.911 5.20664 130.806 4.81517L130.772 4.6911C130.685 4.40643 130.494 4.2643 130.199 4.2643H129.712C129.381 4.2643 129.208 4.46024 129.208 4.77984V12.9939C129.208 13.3135 129.381 13.5095 129.712 13.5095Z" fill="#F7F1E3"/>
<path d="M148.813 10.7358C148.9 10.3797 148.692 10.1669 148.343 10.1669H147.266C146.97 10.1669 146.814 10.3263 146.692 10.5937C146.38 11.3581 145.58 11.8375 144.555 11.8375C143.129 11.8375 141.895 10.7711 141.895 8.88644C141.895 7.10856 143.043 5.93615 144.555 5.93615C145.684 5.93615 146.484 6.55768 146.761 7.30449C146.884 7.58876 147.04 7.74936 147.335 7.74936H148.361C148.708 7.74936 148.9 7.53536 148.831 7.18002C148.466 5.49127 146.954 4.08679 144.519 4.08679C141.704 4.08679 139.74 6.14814 139.74 8.83384C139.74 11.5713 141.704 13.6869 144.589 13.6869C146.658 13.6869 148.396 12.5137 148.813 10.7358Z" fill="#F7F1E3"/>
<path d="M152.428 7.32255C152.88 6.39828 153.731 5.86467 154.688 5.86467C155.644 5.86467 156.426 6.43361 156.773 7.33982C156.912 7.71362 156.704 7.96296 156.321 7.96296L152.845 7.94489C152.463 7.94489 152.237 7.67829 152.428 7.32255ZM152.741 9.45617L158.442 9.47424C158.772 9.47424 158.998 9.26064 158.998 8.94063C159.067 6.09554 157.051 4.08678 154.705 4.08678C152.045 4.08678 150.047 6.0602 150.047 8.83383C150.047 11.6609 152.063 13.6877 154.722 13.6877C156.739 13.6877 158.216 12.5498 158.72 11.0739C158.842 10.7358 158.616 10.5053 158.268 10.5053H157.295C157.017 10.5053 156.86 10.6471 156.704 10.896C156.39 11.5007 155.713 11.8917 154.722 11.8917C153.541 11.8917 152.619 11.216 152.254 10.0789C152.15 9.70471 152.358 9.45617 152.741 9.45617Z" fill="#F7F1E3"/>
<path d="M54.0048 30.3829C51.4147 30.3829 49.4853 28.4448 49.4853 25.6539C49.4853 22.8976 51.4147 20.9956 54.0048 20.9956C56.6118 20.9956 58.5412 22.8976 58.5412 25.6539C58.5412 28.4448 56.6118 30.3829 54.0048 30.3829ZM54.0048 19.0222C50.1807 19.0222 47.261 21.7954 47.261 25.6539C47.261 29.5646 50.1807 32.3563 54.0048 32.3563C57.8458 32.3563 60.7832 29.5646 60.7832 25.6539C60.7832 21.7954 57.8458 19.0222 54.0048 19.0222Z" fill="#F7F1E3"/>
<path d="M69.4383 28.5163C69.4383 28.7644 69.4207 28.9604 69.2824 29.1912C68.8129 29.9742 67.9608 30.507 66.9005 30.507C65.406 30.507 64.2066 29.1912 64.2066 27.5205C64.2066 25.8667 65.4237 24.6044 66.9005 24.6044C67.9262 24.6044 68.7952 25.1203 69.2824 25.9029C69.4207 26.1341 69.4383 26.3289 69.4383 26.5782V28.5163ZM71.0373 18.3107H70.0123C69.6988 18.3107 69.5083 18.5062 69.5083 18.8263V22.951C69.5083 23.3778 69.2647 23.5026 68.8997 23.289C68.2912 22.9329 67.5789 22.7562 66.7791 22.7562C64.0676 22.7562 62.0514 24.8003 62.0514 27.5205C62.0514 30.3295 64.033 32.3563 66.8313 32.3563C67.874 32.3563 68.743 32.0363 69.4383 31.4674C69.7334 31.1827 69.9946 31.2365 70.1337 31.6268L70.186 31.7701C70.2905 32.0717 70.481 32.1789 70.7768 32.1789H71.0373C71.3677 32.1789 71.5413 31.9829 71.5413 31.6629V18.8263C71.5413 18.5062 71.3677 18.3107 71.0373 18.3107Z" fill="#F7F1E3"/>
<path d="M78.2504 30.5061C76.5992 30.5061 75.4689 29.2084 75.4689 27.555C75.4689 25.8839 76.5992 24.6043 78.2504 24.6043C79.8847 24.6043 81.0311 25.8839 81.0311 27.555C81.0311 29.2084 79.8847 30.5061 78.2504 30.5061ZM78.2504 22.7554C75.3829 22.7554 73.366 24.8348 73.366 27.5016C73.366 30.2042 75.3829 32.3555 78.2504 32.3555C81.1179 32.3555 83.1348 30.2042 83.1348 27.5016C83.1348 24.8348 81.1179 22.7554 78.2504 22.7554Z" fill="#F7F1E3"/>
<path d="M90.5729 22.7554C89.3044 22.7554 88.2786 23.0931 87.2183 23.7504C86.8879 23.964 86.6274 23.8752 86.5229 23.4838L86.4883 23.3597C86.4015 23.075 86.2102 22.9329 85.9151 22.9329H85.428C85.0976 22.9329 84.924 23.1284 84.924 23.4484V31.6621C84.924 31.9821 85.0976 32.178 85.428 32.178H86.506C86.8356 32.178 87.01 31.9821 87.01 31.6621V26.2401C87.01 25.9374 87.1314 25.7418 87.3573 25.5824C88.2095 25.0484 89.113 24.6401 89.9121 24.6401C91.0247 24.6401 91.6501 25.3512 91.6501 26.5063V31.6621C91.6501 31.9821 91.8245 32.178 92.1549 32.178H93.2499C93.5626 32.178 93.7539 31.9821 93.7539 31.6621V26.3995C93.7539 24.0527 92.5545 22.7554 90.5729 22.7554Z" fill="#F7F1E3"/>
<path d="M101.036 30.2404C100.585 30.3829 100.097 30.4716 99.5765 30.4716C98.8289 30.4716 98.4985 30.0276 98.4985 29.1912V24.9424C98.4985 24.8356 98.5853 24.765 98.6898 24.765H101.158C101.488 24.765 101.662 24.569 101.662 24.2486V23.4492C101.662 23.1292 101.488 22.9329 101.158 22.9329H98.6898C98.5853 22.9329 98.4985 22.8622 98.4985 22.7378V20.9069C98.4985 20.5507 98.2903 20.3556 97.9422 20.4439L96.8995 20.7109C96.6214 20.7997 96.4823 20.9775 96.4823 21.2979V22.7378C96.4823 22.8622 96.3955 22.9329 96.2918 22.9329H95.6479C95.3175 22.9329 95.127 23.1292 95.127 23.4492V24.2486C95.127 24.569 95.3175 24.765 95.631 24.765H96.2042C96.3264 24.765 96.3955 24.8356 96.3955 24.9424V29.2446C96.3955 31.5561 97.664 32.3563 99.1938 32.3563C99.9937 32.3563 100.706 32.2142 101.331 32.0363C101.627 31.9295 101.749 31.7159 101.714 31.414L101.645 30.6491C101.61 30.2934 101.384 30.1336 101.036 30.2404Z" fill="#F7F1E3"/>
<path d="M107.432 30.5061C105.781 30.5061 104.65 29.2084 104.65 27.555C104.65 25.8839 105.781 24.6043 107.432 24.6043C109.066 24.6043 110.213 25.8839 110.213 27.555C110.213 29.2084 109.066 30.5061 107.432 30.5061ZM107.432 22.7554C104.564 22.7554 102.547 24.8348 102.547 27.5016C102.547 30.2042 104.564 32.3555 107.432 32.3555C110.299 32.3555 112.316 30.2042 112.316 27.5016C112.316 24.8348 110.299 22.7554 107.432 22.7554Z" fill="#F7F1E3"/>
<path d="M115.722 18.3107H114.627C114.297 18.3107 114.123 18.5062 114.123 18.8262V31.6621C114.123 31.9821 114.297 32.178 114.627 32.178H115.722C116.035 32.178 116.226 31.9821 116.226 31.6621V18.8262C116.226 18.5062 116.035 18.3107 115.722 18.3107Z" fill="#F7F1E3"/>
<path d="M122.935 30.5061C121.284 30.5061 120.154 29.2084 120.154 27.555C120.154 25.8839 121.284 24.6043 122.935 24.6043C124.57 24.6043 125.716 25.8839 125.716 27.555C125.716 29.2084 124.57 30.5061 122.935 30.5061ZM122.935 22.7554C120.068 22.7554 118.051 24.8348 118.051 27.5016C118.051 30.2042 120.068 32.3555 122.935 32.3555C125.803 32.3555 127.82 30.2042 127.82 27.5016C127.82 24.8348 125.803 22.7554 122.935 22.7554Z" fill="#F7F1E3"/>
<path d="M136.388 28.4267C136.388 28.6757 136.353 28.8716 136.214 29.1025C135.727 29.8665 134.893 30.3821 133.867 30.3821C132.355 30.3821 131.156 29.0663 131.156 27.4671C131.156 25.8667 132.373 24.6044 133.867 24.6044C134.875 24.6044 135.727 25.1018 136.214 25.884C136.353 26.0972 136.388 26.2935 136.388 26.542V28.4267ZM137.986 22.9329H137.605C137.326 22.9329 137.117 23.075 137.031 23.3416L137.014 23.4303C136.892 23.8399 136.631 23.8752 136.318 23.6086C135.605 23.0569 134.736 22.7554 133.728 22.7554C131.017 22.7554 129.001 24.7995 129.001 27.4671C129.001 30.2042 130.982 32.2134 133.797 32.2134C134.632 32.2134 135.345 32.0174 135.953 31.6268C136.301 31.3959 136.561 31.4493 136.561 31.84V31.8761C136.561 33.2798 135.466 34.2583 133.954 34.2583C132.964 34.2583 132.112 33.8848 131.747 33.3159C131.591 33.0846 131.434 32.9425 131.156 32.9425H130.218C129.853 32.9425 129.644 33.173 129.783 33.5287C130.374 35.0577 131.886 36 133.954 36C136.613 36 138.491 34.347 138.491 31.8761V23.4484C138.491 23.1284 138.299 22.9329 137.986 22.9329Z" fill="#F7F1E3"/>
<path d="M143.844 18.9685C143.687 18.667 143.444 18.5775 143.148 18.773L140.298 20.587C140.02 20.7645 139.967 21.013 140.124 21.2981L140.228 21.5113C140.384 21.7956 140.61 21.8666 140.889 21.7422L143.965 20.4802C144.278 20.3557 144.365 20.1249 144.225 19.8049L143.844 18.9685Z" fill="#F7F1E3"/>
<path d="M142.488 22.9329H141.393C141.062 22.9329 140.889 23.1284 140.889 23.4484V31.6621C140.889 31.9821 141.062 32.178 141.393 32.178H142.488C142.8 32.178 142.992 31.9821 142.992 31.6621V23.4484C142.992 23.1284 142.8 22.9329 142.488 22.9329Z" fill="#F7F1E3"/>
<path d="M150.953 29.1378C150.953 29.4044 150.866 29.6 150.622 29.7774C149.892 30.2404 149.075 30.5957 148.241 30.5957C147.459 30.5957 146.868 30.2404 146.868 29.5474C146.868 28.8532 147.424 28.4801 148.658 28.4801H150.414C150.761 28.4801 150.953 28.6757 150.953 29.0138V29.1378ZM149.058 22.7554C147.042 22.7554 145.477 23.8226 145.13 25.6359C145.06 25.9727 145.251 26.1867 145.599 26.1867H146.521C146.85 26.1867 146.989 26.0089 147.076 25.7599C147.337 25.0484 147.997 24.5863 148.971 24.5863C150.153 24.5863 150.953 25.2797 150.953 26.5063C150.953 26.8444 150.761 27.0223 150.414 27.0223L148.624 27.005C146.259 26.9869 144.765 28.0714 144.765 29.7421C144.765 31.2 145.947 32.3563 147.685 32.3563C148.884 32.3563 149.909 31.9476 150.779 31.3778C151.109 31.1646 151.37 31.2357 151.509 31.5914L151.596 31.7874C151.7 32.0708 151.908 32.1781 152.187 32.1781H152.517C152.83 32.1781 153.021 31.9821 153.021 31.6621V26.8617C153.021 24.302 151.561 22.7554 149.058 22.7554Z" fill="#F7F1E3"/>
<path d="M18.455 4.79947C18.459 3.54395 19.4558 2.53014 20.6834 2.53014H25.7768C31.0021 2.53014 31.7224 4.39515 31.7224 6.41033C31.7224 8.5026 31.0849 10.9044 26.1129 10.9044C23.7558 10.9044 21.1464 9.45458 18.5973 7.64136C18.5032 7.57391 18.447 7.46148 18.447 7.34464C18.4502 6.41314 18.4526 5.55712 18.455 4.79947ZM16.5458 17.8032H17.8641C18.1769 17.8032 18.4301 17.545 18.4309 17.2246C18.4309 14.8693 18.4341 12.8951 18.4389 10.739C18.4389 10.6551 18.529 10.6073 18.5981 10.6519C21.0524 12.239 23.5951 13.4107 26.1129 13.4107C31.3856 13.4107 34.1727 10.99 34.1727 6.41033C34.1727 2.1724 31.3478 0.0239182 25.7768 0.0239182H20.6882C18.1142 0.0239182 16.0136 2.16437 16.0047 4.79546C16.0039 5.00866 16.0031 5.22869 16.0023 5.45675C16.0023 5.54949 15.8978 5.6029 15.8263 5.54708C15.52 5.30618 15.2169 5.06688 14.9171 4.82999C11.6686 2.25953 8.86379 0.0403824 6.43443 0.0403824C3.62081 0.0403824 0.221965 1.95117 0.0105414 11.053C-0.0995863 15.7896 0.653656 20.4074 2.24777 24.7774C4.12887 29.9364 6.24551 32.4442 8.71747 32.4442C11.6637 32.4442 13.5199 29.0663 15.1582 26.0855C15.696 25.107 16.4549 23.7254 16.9895 23.1196C17.1286 22.9618 17.3722 22.9618 17.5112 23.1196C18.0458 23.7254 18.8047 25.107 19.3425 26.0855C20.98 29.0663 22.837 32.4442 25.7833 32.4442C30.6291 32.4442 33.3004 22.015 34.024 18.7154C34.0931 18.3994 33.8969 18.0878 33.5874 18.0212L32.2964 17.7458C31.9925 17.6807 31.6951 17.8815 31.6283 18.1922C29.9 26.2007 27.141 29.938 25.7833 29.938C24.2703 29.938 22.6569 27.0013 21.4784 24.8569C20.0909 22.3318 18.9952 20.3375 17.2508 20.3375C15.5063 20.3375 14.4098 22.3318 13.0223 24.8569C11.8438 27.0013 10.2304 29.938 8.71747 29.938C8.25444 29.938 6.58636 29.5028 4.54288 23.9005C3.05889 19.8312 2.3579 15.529 2.45999 11.1124C2.55084 7.20492 3.31372 2.5466 6.43443 2.5466C8.02613 2.5466 10.7674 4.71476 13.4178 6.81264C14.1791 7.41451 14.9605 8.03203 15.7571 8.6371C15.9051 8.74912 15.9927 8.92338 15.9919 9.11169C15.9854 11.6805 15.9806 14.261 15.9798 17.2246C15.9798 17.5442 16.233 17.8032 16.5458 17.8032Z" fill="#F7F1E3"/>
</svg>
