<svg width="198" height="44" viewBox="0 0 198 44" fill="none" xmlns="http://www.w3.org/2000/svg">
<path d="M60.7125 16.429H72.5825C72.9715 16.429 73.2095 16.1907 73.2095 15.8021V14.764C73.2095 14.3528 72.9715 14.137 72.5825 14.137H64.6685C64.2145 14.137 64.0415 13.8338 64.3235 13.4671L72.6905 2.22393C72.8845 1.94268 72.9715 1.72686 72.9715 1.40313V1.25079C72.9715 0.862114 72.7335 0.644829 72.3015 0.644829H61.0795C60.6695 0.644829 60.4525 0.884087 60.4525 1.27276V2.33184C60.4525 2.721 60.6695 2.95879 61.0795 2.95879H68.3225C68.7765 2.95879 68.9065 3.26202 68.6475 3.62872L60.3015 14.8289C60.1285 15.1097 60.0425 15.326 60.0425 15.6507V15.8021C60.0425 16.2127 60.2795 16.429 60.7125 16.429Z" fill="#435549"/>
<path d="M76.8847 8.90508C77.4467 7.78106 78.5057 7.13213 79.6957 7.13213C80.8847 7.13213 81.8577 7.82403 82.2897 8.92608C82.4627 9.38067 82.2037 9.68389 81.7277 9.68389L77.4037 9.66192C76.9277 9.66192 76.6467 9.3377 76.8847 8.90508ZM79.7387 16.6458C82.2467 16.6458 84.0847 15.262 84.7117 13.4671C84.8627 13.056 84.5817 12.7757 84.1497 12.7757H82.9387C82.5927 12.7757 82.3977 12.9481 82.2037 13.2508C81.8137 13.9861 80.9707 14.4617 79.7387 14.4617C78.2687 14.4617 77.1227 13.6399 76.6687 12.2571C76.5387 11.8021 76.7977 11.4998 77.2737 11.4998L84.3657 11.5218C84.7767 11.5218 85.0577 11.262 85.0577 10.8729C85.1437 7.4129 82.6357 4.97002 79.7167 4.97002C76.4087 4.97002 73.9227 7.36993 73.9227 10.743C73.9227 14.181 76.4307 16.6458 79.7387 16.6458Z" fill="#435549"/>
<path d="M95.6944 9.53204V15.8021C95.6944 16.1917 95.9104 16.429 96.3214 16.429H97.6834C98.0724 16.429 98.3104 16.1917 98.3104 15.8021V9.40313C98.3104 6.54815 96.8184 4.97002 94.3544 4.97002C92.7754 4.97002 91.4994 5.38067 90.1814 6.18096C89.7704 6.44073 89.4464 6.33184 89.3164 5.85674L89.2734 5.70489C89.1654 5.3587 88.9274 5.18584 88.5594 5.18584H87.9544C87.5434 5.18584 87.3274 5.42413 87.3274 5.8128V15.8021C87.3274 16.1917 87.5434 16.429 87.9544 16.429H89.2944C89.7054 16.429 89.9214 16.1917 89.9214 15.8021V9.20782C89.9214 8.84014 90.0734 8.60186 90.3544 8.40801C91.4134 7.76006 92.5374 7.26202 93.5324 7.26202C94.9164 7.26202 95.6944 8.12676 95.6944 9.53204Z" fill="#435549"/>
<path d="M106.505 7.21905C108.538 7.21905 109.964 8.77569 109.964 10.8079C109.964 12.8191 108.538 14.3968 106.505 14.3968C104.451 14.3968 103.045 12.8191 103.045 10.8079C103.045 8.77569 104.451 7.21905 106.505 7.21905ZM106.505 16.6458C110.072 16.6458 112.581 14.0291 112.581 10.743C112.581 7.49981 110.072 4.97002 106.505 4.97002C102.938 4.97002 100.429 7.49981 100.429 10.743C100.429 14.0291 102.938 16.6458 106.505 16.6458Z" fill="#435549"/>
<path d="M104.17 3.4558C104.365 3.80199 104.667 3.88793 105.013 3.73705L108.927 2.20189C109.316 2.05004 109.424 1.76879 109.251 1.37963L108.754 0.364001C108.559 -0.00318623 108.256 -0.111096 107.889 0.12572L104.257 2.33177C103.911 2.54808 103.846 2.85082 104.04 3.19701L104.17 3.4558Z" fill="#435549"/>
<path d="M123.174 9.53204V15.8021C123.174 16.1917 123.39 16.429 123.801 16.429H125.163C125.552 16.429 125.79 16.1917 125.79 15.8021V9.40313C125.79 6.54815 124.299 4.97002 121.834 4.97002C120.255 4.97002 118.979 5.38067 117.661 6.18096C117.25 6.44073 116.926 6.33184 116.796 5.85674L116.753 5.70489C116.645 5.3587 116.407 5.18584 116.039 5.18584H115.434C115.023 5.18584 114.807 5.42413 114.807 5.8128V15.8021C114.807 16.1917 115.023 16.429 115.434 16.429H116.774C117.185 16.429 117.401 16.1917 117.401 15.8021V9.20782C117.401 8.84014 117.553 8.60186 117.834 8.40801C118.893 7.76006 120.017 7.26202 121.012 7.26202C122.396 7.26202 123.174 8.12676 123.174 9.53204Z" fill="#435549"/>
<path d="M138.697 9.66094H137.205C136.967 9.66094 136.816 9.51006 136.816 9.27178V3.30401C136.816 3.0667 136.967 2.91485 137.205 2.91485H138.697C140.881 2.91485 142.524 4.29913 142.524 6.31084C142.524 8.16875 140.902 9.66094 138.697 9.66094ZM138.654 0.645805H134.87C134.351 0.645805 134.092 0.927055 134.092 1.42413V15.8021C134.092 16.1907 134.308 16.429 134.718 16.429H136.167C136.578 16.429 136.816 16.1907 136.816 15.8021V12.3211C136.816 12.0828 136.967 11.9319 137.205 11.9319H138.654C142.437 11.9319 145.313 9.575 145.313 6.31084C145.313 2.89288 142.416 0.645805 138.654 0.645805Z" fill="#435549"/>
<path d="M152.426 7.21905C154.459 7.21905 155.885 8.77569 155.885 10.8079C155.885 12.8191 154.459 14.3968 152.426 14.3968C150.372 14.3968 148.966 12.8191 148.966 10.8079C148.966 8.77569 150.372 7.21905 152.426 7.21905ZM152.426 16.6458C155.993 16.6458 158.502 14.0291 158.502 10.743C158.502 7.49981 155.993 4.97002 152.426 4.97002C148.859 4.97002 146.35 7.49981 146.35 10.743C146.35 14.0291 148.859 16.6458 152.426 16.6458Z" fill="#435549"/>
<path d="M161.355 16.429H162.695C163.106 16.429 163.323 16.1907 163.323 15.8021V9.20782C163.323 8.84014 163.474 8.60186 163.755 8.40801C164.815 7.75909 165.939 7.26202 166.933 7.26202C168.317 7.26202 169.095 8.12579 169.095 9.53204V15.8021C169.095 16.1907 169.312 16.429 169.722 16.429H171.085C171.474 16.429 171.712 16.1907 171.712 15.8021V9.40166C171.712 6.54815 170.22 4.97002 167.755 4.97002C166.177 4.97002 164.901 5.38067 163.582 6.17999C163.171 6.43975 162.847 6.33184 162.717 5.85577L162.674 5.70489C162.566 5.3587 162.328 5.18584 161.961 5.18584H161.355C160.944 5.18584 160.728 5.42413 160.728 5.8128V15.8021C160.728 16.1907 160.944 16.429 161.355 16.429Z" fill="#435549"/>
<path d="M185.116 13.056C185.224 12.6229 184.965 12.3641 184.532 12.3641H183.192C182.824 12.3641 182.629 12.5579 182.478 12.8831C182.089 13.8128 181.094 14.3958 179.819 14.3958C178.046 14.3958 176.511 13.0989 176.511 10.8069C176.511 8.64483 177.938 7.21905 179.819 7.21905C181.224 7.21905 182.219 7.97491 182.564 8.88311C182.716 9.22881 182.91 9.42413 183.278 9.42413H184.554C184.986 9.42413 185.224 9.16387 185.138 8.73174C184.684 6.67803 182.803 4.97002 179.775 4.97002C176.273 4.97002 173.83 7.47686 173.83 10.743C173.83 14.0721 176.273 16.6448 179.862 16.6448C182.435 16.6448 184.597 15.2181 185.116 13.056Z" fill="#435549"/>
<path d="M189.613 8.90508C190.175 7.78106 191.234 7.13213 192.424 7.13213C193.613 7.13213 194.586 7.82403 195.018 8.92608C195.191 9.38067 194.932 9.68389 194.456 9.68389L190.132 9.66192C189.656 9.66192 189.375 9.3377 189.613 8.90508ZM190.002 11.4998L197.094 11.5218C197.505 11.5218 197.786 11.262 197.786 10.8729C197.872 7.4129 195.364 4.97002 192.445 4.97002C189.137 4.97002 186.651 7.36993 186.651 10.743C186.651 14.181 189.159 16.6458 192.467 16.6458C194.975 16.6458 196.813 15.262 197.44 13.4671C197.591 13.056 197.31 12.7757 196.878 12.7757H195.667C195.321 12.7757 195.126 12.9481 194.932 13.2508C194.542 13.9861 193.699 14.4617 192.467 14.4617C190.997 14.4617 189.851 13.6399 189.397 12.2571C189.267 11.8021 189.526 11.4998 190.002 11.4998Z" fill="#435549"/>
<path d="M67.1794 36.949C63.9574 36.949 61.5574 34.5921 61.5574 31.1981C61.5574 27.846 63.9574 25.533 67.1794 25.533C70.4224 25.533 72.8224 27.846 72.8224 31.1981C72.8224 34.5921 70.4224 36.949 67.1794 36.949ZM67.1794 23.1331C62.4224 23.1331 58.7904 26.5057 58.7904 31.1981C58.7904 35.9539 62.4224 39.3489 67.1794 39.3489C71.9574 39.3489 75.6114 35.9539 75.6114 31.1981C75.6114 26.5057 71.9574 23.1331 67.1794 23.1331Z" fill="#435549"/>
<path d="M86.3779 34.679C86.3779 34.9808 86.3559 35.219 86.1839 35.4998C85.5999 36.452 84.5399 37.0999 83.2209 37.0999C81.3619 37.0999 79.8699 35.4998 79.8699 33.4681C79.8699 31.4568 81.3839 29.9217 83.2209 29.9217C84.4969 29.9217 85.5779 30.5491 86.1839 31.5008C86.3559 31.782 86.3779 32.0189 86.3779 32.3221V34.679ZM88.3669 22.2679H87.0919C86.7019 22.2679 86.4649 22.5057 86.4649 22.8948V27.9109C86.4649 28.43 86.1619 28.5818 85.7079 28.3221C84.9509 27.889 84.0649 27.6741 83.0699 27.6741C79.6969 27.6741 77.1889 30.16 77.1889 33.4681C77.1889 36.8841 79.6539 39.3489 83.1349 39.3489C84.4319 39.3489 85.5129 38.9598 86.3779 38.2679C86.7449 37.9217 87.0699 37.9871 87.2429 38.4617L87.3079 38.636C87.4379 39.0027 87.6749 39.1331 88.0429 39.1331H88.3669C88.7779 39.1331 88.9939 38.8948 88.9939 38.5057V22.8948C88.9939 22.5057 88.7779 22.2679 88.3669 22.2679Z" fill="#435549"/>
<path d="M97.3397 37.0989C95.2857 37.0989 93.8797 35.5208 93.8797 33.5101C93.8797 31.4778 95.2857 29.9217 97.3397 29.9217C99.3727 29.9217 100.799 31.4778 100.799 33.5101C100.799 35.5208 99.3727 37.0989 97.3397 37.0989ZM97.3397 27.6731C93.7727 27.6731 91.2637 30.202 91.2637 33.4451C91.2637 36.7317 93.7727 39.348 97.3397 39.348C100.907 39.348 103.416 36.7317 103.416 33.4451C103.416 30.202 100.907 27.6731 97.3397 27.6731Z" fill="#435549"/>
<path d="M112.668 27.6731C111.09 27.6731 109.814 28.0838 108.495 28.8831C108.084 29.1429 107.76 29.035 107.63 28.5589L107.587 28.408C107.479 28.0618 107.241 27.889 106.874 27.889H106.268C105.857 27.889 105.641 28.1268 105.641 28.5159V38.5047C105.641 38.8939 105.857 39.1321 106.268 39.1321H107.609C108.019 39.1321 108.236 38.8939 108.236 38.5047V31.9109C108.236 31.5428 108.387 31.305 108.668 31.1111C109.728 30.4617 110.852 29.9651 111.846 29.9651C113.23 29.9651 114.008 30.8299 114.008 32.2347V38.5047C114.008 38.8939 114.225 39.1321 114.636 39.1321H115.998C116.387 39.1321 116.625 38.8939 116.625 38.5047V32.1048C116.625 29.2508 115.133 27.6731 112.668 27.6731Z" fill="#435549"/>
<path d="M125.684 36.7757C125.122 36.949 124.516 37.0569 123.868 37.0569C122.938 37.0569 122.527 36.5169 122.527 35.4998V30.3328C122.527 30.2029 122.635 30.117 122.765 30.117H125.835C126.246 30.117 126.462 29.8787 126.462 29.4891V28.5169C126.462 28.1277 126.246 27.889 125.835 27.889H122.765C122.635 27.889 122.527 27.803 122.527 27.6517V25.4251C122.527 24.992 122.268 24.7547 121.835 24.8621L120.538 25.1868C120.192 25.2947 120.019 25.511 120.019 25.9007V27.6517C120.019 27.803 119.911 27.889 119.782 27.889H118.981C118.57 27.889 118.333 28.1277 118.333 28.5169V29.4891C118.333 29.8787 118.57 30.117 118.96 30.117H119.673C119.825 30.117 119.911 30.2029 119.911 30.3328V35.5648C119.911 38.3758 121.489 39.3489 123.392 39.3489C124.387 39.3489 125.273 39.1761 126.051 38.9598C126.419 38.8299 126.57 38.5701 126.527 38.2029L126.441 37.2728C126.397 36.8401 126.116 36.6458 125.684 36.7757Z" fill="#435549"/>
<path d="M133.64 37.0989C131.586 37.0989 130.18 35.5208 130.18 33.5101C130.18 31.4778 131.586 29.9217 133.64 29.9217C135.673 29.9217 137.099 31.4778 137.099 33.5101C137.099 35.5208 135.673 37.0989 133.64 37.0989ZM133.64 27.6731C130.073 27.6731 127.564 30.202 127.564 33.4451C127.564 36.7317 130.073 39.348 133.64 39.348C137.207 39.348 139.716 36.7317 139.716 33.4451C139.716 30.202 137.207 27.6731 133.64 27.6731Z" fill="#435549"/>
<path d="M143.953 22.2679H142.591C142.18 22.2679 141.964 22.5057 141.964 22.8948V38.5047C141.964 38.8939 142.18 39.1321 142.591 39.1321H143.953C144.342 39.1321 144.58 38.8939 144.58 38.5047V22.8948C144.58 22.5057 144.342 22.2679 143.953 22.2679Z" fill="#435549"/>
<path d="M152.925 37.0989C150.871 37.0989 149.465 35.5208 149.465 33.5101C149.465 31.4778 150.871 29.9217 152.925 29.9217C154.958 29.9217 156.384 31.4778 156.384 33.5101C156.384 35.5208 154.958 37.0989 152.925 37.0989ZM152.925 27.6731C149.358 27.6731 146.849 30.202 146.849 33.4451C146.849 36.7317 149.358 39.348 152.925 39.348C156.492 39.348 159.001 36.7317 159.001 33.4451C159.001 30.202 156.492 27.6731 152.925 27.6731Z" fill="#435549"/>
<path d="M169.659 34.5701C169.659 34.8729 169.616 35.1111 169.443 35.3919C168.837 36.3211 167.8 36.9481 166.524 36.9481C164.643 36.9481 163.151 35.348 163.151 33.4031C163.151 31.4568 164.665 29.9217 166.524 29.9217C167.778 29.9217 168.837 30.5267 169.443 31.4778C169.616 31.7371 169.659 31.9759 169.659 32.2781V34.5701ZM171.648 27.889H171.173C170.827 27.889 170.567 28.0618 170.459 28.386L170.438 28.4939C170.286 28.992 169.962 29.035 169.572 28.7107C168.686 28.0398 167.605 27.6731 166.351 27.6731C162.978 27.6731 160.47 30.159 160.47 33.4031C160.47 36.7317 162.935 39.1751 166.437 39.1751C167.475 39.1751 168.362 38.9368 169.118 38.4617C169.551 38.181 169.875 38.2459 169.875 38.721V38.7649C169.875 40.472 168.513 41.6619 166.632 41.6619C165.4 41.6619 164.34 41.2078 163.886 40.5159C163.692 40.2347 163.497 40.0618 163.151 40.0618H161.984C161.53 40.0618 161.27 40.3421 161.443 40.7747C162.178 42.6341 164.059 43.7801 166.632 43.7801C169.94 43.7801 172.275 41.7698 172.275 38.7649V28.5159C172.275 28.1268 172.037 27.889 171.648 27.889Z" fill="#435549"/>
<path d="M178.934 23.0679C178.739 22.7012 178.437 22.5923 178.069 22.8301L174.523 25.0361C174.177 25.252 174.112 25.5542 174.307 25.9009L174.436 26.1602C174.631 26.5059 174.912 26.5923 175.258 26.4409L179.085 24.9063C179.474 24.7549 179.582 24.4741 179.409 24.085L178.934 23.0679Z" fill="#435549"/>
<path d="M177.248 27.889H175.886C175.475 27.889 175.259 28.1268 175.259 28.5159V38.5047C175.259 38.8939 175.475 39.1321 175.886 39.1321H177.248C177.637 39.1321 177.875 38.8939 177.875 38.5047V28.5159C177.875 28.1268 177.637 27.889 177.248 27.889Z" fill="#435549"/>
<path d="M187.778 35.4349C187.778 35.7591 187.67 35.9969 187.367 36.2127C186.459 36.7757 185.443 37.2078 184.404 37.2078C183.432 37.2078 182.697 36.7757 182.697 35.9329C182.697 35.0887 183.389 34.6351 184.924 34.6351H187.107C187.54 34.6351 187.778 34.8729 187.778 35.284V35.4349ZM185.421 27.6731C182.913 27.6731 180.967 28.971 180.535 31.1761C180.447 31.5857 180.686 31.846 181.119 31.846H182.265C182.675 31.846 182.848 31.6297 182.956 31.327C183.281 30.4617 184.102 29.8997 185.313 29.8997C186.783 29.8997 187.778 30.743 187.778 32.2347C187.778 32.6458 187.54 32.8621 187.107 32.8621L184.881 32.8411C181.939 32.8191 180.081 34.138 180.081 36.1697C180.081 37.9427 181.551 39.3489 183.713 39.3489C185.205 39.3489 186.48 38.8519 187.562 38.159C187.972 37.8997 188.296 37.9861 188.469 38.4188L188.577 38.657C188.708 39.0018 188.967 39.1321 189.313 39.1321H189.723C190.113 39.1321 190.351 38.8939 190.351 38.5047V32.6668C190.351 29.554 188.535 27.6731 185.421 27.6731Z" fill="#435549"/>
<path d="M22.9571 5.83672C22.9621 4.30987 24.2021 3.07696 25.7291 3.07696H32.0651C38.5651 3.07696 39.4611 5.34502 39.4611 7.79571C39.4611 10.3401 38.6681 13.261 32.4831 13.261C29.5511 13.261 26.3051 11.4979 23.1341 9.29278C23.0171 9.21075 22.9471 9.07403 22.9471 8.93194C22.9511 7.79913 22.9541 6.75811 22.9571 5.83672ZM20.5821 21.6507H22.2221C22.6111 21.6507 22.9261 21.3367 22.9271 20.9471C22.9271 18.0828 22.9311 15.6819 22.9371 13.0599C22.9371 12.9578 23.0491 12.8997 23.1351 12.9539C26.1881 14.8841 29.3511 16.3089 32.4831 16.3089C39.0421 16.3089 42.5091 13.365 42.5091 7.79571C42.5091 2.6419 38.9951 0.0291061 32.0651 0.0291061H25.7351C22.5331 0.0291061 19.9201 2.63213 19.9091 5.83184C19.9081 6.09112 19.9071 6.3587 19.9061 6.63604C19.9061 6.74883 19.7761 6.81377 19.6871 6.7459C19.3061 6.45293 18.9291 6.16192 18.5561 5.87383C14.5151 2.74786 11.0261 0.0491257 8.00411 0.0491257C4.50411 0.0491257 0.276113 2.37286 0.013113 13.4417C-0.12388 19.202 0.813116 24.8177 2.79612 30.1321C5.13611 36.4061 7.76911 39.4559 10.8441 39.4559C14.5091 39.4559 16.8181 35.348 18.8561 31.723C19.5251 30.533 20.4691 28.8528 21.1341 28.116C21.3071 27.9241 21.6101 27.9241 21.7831 28.116C22.4481 28.8528 23.3921 30.533 24.0611 31.723C26.0981 35.348 28.4081 39.4559 32.0731 39.4559C38.1011 39.4559 41.4241 26.7728 42.3241 22.7601C42.4101 22.3758 42.1661 21.9969 41.7811 21.9158L40.1751 21.5809C39.7971 21.5018 39.4271 21.7459 39.3441 22.1238C37.1941 31.8631 33.7621 36.408 32.0731 36.408C30.1911 36.408 28.1841 32.8367 26.7181 30.2288C24.9921 27.158 23.6291 24.7327 21.4591 24.7327C19.2891 24.7327 17.9251 27.158 16.1991 30.2288C14.7331 32.8367 12.7261 36.408 10.8441 36.408C10.2681 36.408 8.19311 35.8787 5.65111 29.0657C3.80511 24.117 2.93311 18.8851 3.06011 13.514C3.17312 8.76202 4.12211 3.09698 8.00411 3.09698C9.98411 3.09698 13.3941 5.7337 16.6911 8.28497C17.6381 9.0169 18.6101 9.76788 19.6011 10.5037C19.7851 10.6399 19.8941 10.8519 19.8931 11.0809C19.8851 14.2049 19.8791 17.3431 19.8781 20.9471C19.8781 21.3357 20.1931 21.6507 20.5821 21.6507Z" fill="#435549"/>
</svg>
