<svg width="21" height="21" viewBox="0 0 21 21" fill="none" xmlns="http://www.w3.org/2000/svg">
<path fill-rule="evenodd" clip-rule="evenodd" d="M21.0089 10.5038C21.0089 16.3048 16.3059 21.0078 10.505 21.0078C4.703 21.0078 0 16.3048 0 10.5038C0 4.70279 4.703 -0.000213623 10.505 -0.000213623C16.3059 -0.000213623 21.0089 4.70279 21.0089 10.5038Z" fill="#F7F2E5"/>
<path fill-rule="evenodd" clip-rule="evenodd" d="M6.3219 15.6649L7.26697 15.4959L7.83997 15.3949C8.6499 15.8339 9.52698 16.0699 10.505 16.0699C13.574 16.0699 16.0709 13.5739 16.0709 10.5039C16.0709 7.43393 13.574 4.93793 10.505 4.93793C7.43494 4.93793 4.93896 7.43393 4.93896 10.5039C4.93896 11.6169 5.276 12.6289 5.81592 13.5059L5.7489 14.0119L5.61389 15.0239L5.51196 15.7999L6.3219 15.6649ZM10.505 3.85892C14.182 3.85892 17.1499 6.82693 17.1499 10.5039C17.1499 14.1809 14.182 17.1489 10.505 17.1489C9.49292 17.1489 8.54797 16.9469 7.70496 16.5419L4.16296 17.1489L4.63501 13.6409L4.60193 13.5739C4.12891 12.6629 3.85999 11.6169 3.85999 10.5039C3.85999 6.82693 6.828 3.85892 10.505 3.85892ZM8.14392 7.46793C8.51489 7.23193 8.75098 7.40091 8.88599 7.77191L9.2229 8.64893C9.2229 8.64893 9.45898 9.12091 8.85193 9.59293C8.75098 9.66092 8.75098 9.66092 8.78491 9.82892C8.91895 10.2339 9.45898 11.4489 11.179 12.3929C11.3479 12.4939 11.382 12.4939 11.5509 12.3589C11.6849 12.2239 11.854 12.0559 11.9889 11.9209C12.293 11.6509 12.4609 11.5499 12.731 11.7519C12.933 11.8869 13.136 12.0559 13.3379 12.1909C13.5409 12.3589 13.8779 12.5619 13.5409 12.9659L13.2369 13.3379C12.799 13.8769 12.427 13.9109 11.854 13.7759C9.66101 13.2029 8.04199 11.6509 7.33398 9.45792C7.0979 8.61493 7.43494 7.90692 8.14392 7.46793Z" fill="#435549"/>
</svg>
