<svg width="65" height="65" viewBox="0 0 65 65" fill="none" xmlns="http://www.w3.org/2000/svg">
<path d="M60.4777 40.0321C56.4157 47.0574 58.3007 45.8063 57.2537 52.3169C56.5837 56.5471 53.3587 60.9609 50.8467 62.2849C48.5017 63.5356 47.6217 60.2618 47.5387 59.2685V51.3605C47.5387 43.1947 37.5297 43.0481 37.5297 51.3605V59.3791C37.2367 60.924 36.5247 62.1742 35.7297 62.5053C33.5517 63.388 28.6107 57.356 27.8157 52.3169C26.7687 45.8063 28.6527 47.0574 24.5907 40.0321C19.6497 31.5352 22.9577 24.3624 32.2537 24.3624C35.2267 24.3624 38.6607 25.1357 42.1787 26.6797C42.3877 26.7903 42.6807 26.7903 42.9317 26.6797C57.3787 20.3535 67.5967 27.7837 60.4777 40.0321ZM42.5137 25.2086C26.6847 18.5144 15.3787 27.3419 23.1247 40.7303C26.9777 47.4254 25.0937 45.9169 26.1397 52.5374C26.9357 57.5404 31.5837 64.0502 35.2687 64.0502C38.0747 64.0502 38.9957 60.7036 39.1637 59.5267L39.2057 51.3605C39.2057 44.9974 45.8637 45.1441 45.8637 51.3605V59.3054C45.8637 59.9676 46.5757 62.984 48.6277 63.8298C52.5637 65.4857 58.0907 57.9076 58.9287 52.5374C59.9757 45.8801 58.0907 47.3885 61.9437 40.7303C69.6907 27.3419 58.3427 18.5144 42.5137 25.2086Z" fill="#F7F2E5"/>
<path d="M33.9708 27.8199C29.6578 27.8199 26.1818 30.8732 26.1818 34.6247C26.1818 35.0296 26.5588 35.3599 27.0198 35.3599C27.4798 35.3599 27.8568 35.0296 27.8568 34.6247C27.8568 31.6821 30.5788 29.2914 33.9708 29.2914C35.0598 29.2914 35.0598 27.8199 33.9708 27.8199Z" fill="#F7F2E5"/>
<path d="M51.0977 27.8199C50.0088 27.8199 50.0088 29.2914 51.0977 29.2914C54.4477 29.2914 57.2118 31.6821 57.2118 34.6247C57.2118 35.0296 57.5888 35.3599 58.0487 35.3599C58.5097 35.3599 58.8867 35.0296 58.8867 34.6247C58.8867 30.8732 55.3687 27.8199 51.0977 27.8199Z" fill="#F7F2E5"/>
<path d="M2.11514 7.69358L4.82413 1.49776L35.1612 2.54984L45.1361 9.92384H37.7752L35.4522 7.02108C35.2921 6.8225 35.0302 6.71527 34.7542 6.7187L2.01816 7.91404C2.04917 7.84413 2.08115 7.77121 2.11514 7.69358ZM36.6902 11.0467C36.8421 11.2363 37.0902 11.3486 37.3542 11.3486H47.3601C47.7011 11.3486 48.0052 11.1616 48.1222 10.8807C48.2392 10.5994 48.1432 10.2841 47.8822 10.0907L35.9931 1.30175C35.8551 1.2001 35.6822 1.14177 35.5022 1.13491L4.30612 0.0536642C3.95517 0.0459442 3.64218 0.225652 3.51718 0.510439C2.21213 3.50284 0.239168 8.01697 0.0751661 8.37081C0.0341505 8.44844 0.00814954 8.5325 0.0021681 8.62128C-0.0278612 8.98327 0.257173 9.30666 0.663179 9.37314C0.879182 9.40831 1.02713 9.42418 1.15714 9.37228L34.3792 8.15851L36.6902 11.0467Z" fill="#F7F2E5"/>
<path d="M35.5989 7.03308V2.45248C35.5989 2.05918 35.2359 1.74008 34.7879 1.74008C34.3399 1.74008 33.9769 2.05918 33.9769 2.45248V7.03308C33.9769 7.42681 34.3399 7.74634 34.7879 7.74634C35.2359 7.74634 35.5989 7.42681 35.5989 7.03308Z" fill="#F7F2E5"/>
<path d="M41.7205 14.3098V20.7887C41.7205 21.1824 42.0835 21.502 42.5315 21.502C42.9795 21.502 43.3425 21.1824 43.3425 20.7887V14.3098C43.3425 13.9161 42.9795 13.5983 42.5315 13.5983C42.0835 13.5983 41.7205 13.9161 41.7205 14.3098Z" fill="#F7F2E5"/>
<path d="M37.7727 14.3877L34.0857 19.9989C33.8607 20.3386 33.9937 20.7752 34.3817 20.9721C34.5097 21.0364 34.6497 21.0669 34.7867 21.0669C35.0677 21.0669 35.3397 20.9395 35.4897 20.7113L39.1777 15.1001C39.4017 14.7596 39.2687 14.3238 38.8807 14.1269C38.4907 13.9284 37.9957 14.0472 37.7727 14.3877Z" fill="#F7F2E5"/>
<path d="M46.1821 14.1278C45.7941 14.3247 45.6611 14.7604 45.8851 15.101L49.5741 20.7122C49.7241 20.9404 49.9961 21.0669 50.2771 21.0669C50.4141 21.0669 50.5541 21.0373 50.6821 20.9721C51.0701 20.7752 51.2031 20.3399 50.9791 19.9998L47.2901 14.3877C47.0671 14.0472 46.5741 13.9292 46.1821 14.1278Z" fill="#F7F2E5"/>
</svg>
