<svg width="65" height="65" viewBox="0 0 65 65" fill="none" xmlns="http://www.w3.org/2000/svg">
<path d="M26.5235 49.2119C26.5026 49.2119 26.4389 49.2109 26.4192 49.2098C25.5289 49.1724 24.7992 48.5756 24.6986 47.7946L24.0265 42.55C23.9101 41.6301 23.8487 40.6977 23.8463 39.7784C23.8364 36.4677 23.0981 33.388 21.6546 30.6273L20.6134 28.6367C20.2712 27.9816 20.0345 27.3718 19.8898 26.7719C18.8069 22.3166 21.3762 17.9424 26.1384 16.1323C28.0565 15.4034 30.3254 15.2863 32.5268 15.8019L37.544 16.9762C38.0739 17.1006 38.3891 17.5761 38.2456 18.0356C38.1034 18.4965 37.5588 18.7728 37.0253 18.6459L32.008 17.4715C30.242 17.0569 28.4404 17.1432 26.9368 17.7156C23.0479 19.1937 20.9507 22.7708 21.8361 26.416C21.9514 26.8911 22.144 27.3848 22.4248 27.9228L23.4661 29.9124C25.0273 32.8969 25.8245 36.2159 25.8355 39.7742C25.8392 40.6327 25.8956 41.5016 26.0047 42.3601L26.5701 46.7717L28.6391 38.2331C29.3001 35.5098 31.8192 30.6336 37.0756 29.6544C37.6116 29.5508 38.1413 29.8505 38.2579 30.3172C38.3731 30.7839 38.031 31.2444 37.4938 31.3433C33.2258 32.1404 31.1091 36.4323 30.5854 38.589L28.319 47.946C28.1399 48.6791 27.3844 49.2119 26.5235 49.2119Z" fill="#F7F2E5"/>
<path d="M37.2524 35.1705C39.6783 35.1705 42.2893 37.1986 42.2893 41.6513V51.1104C42.2893 51.8248 43.1429 54.9393 45.0439 55.714C45.819 56.0366 46.6872 55.9591 47.7088 55.4814C51.2311 53.8321 55.2771 47.7357 56.035 42.9354C56.4446 40.3527 56.4728 38.8511 56.4961 37.644C56.5415 35.1195 56.5611 34.0742 59.762 28.6048C63.5897 22.061 63.5971 15.921 59.7829 12.1779C55.905 8.37245 48.8727 7.59252 40.971 10.0905C38.5782 10.846 35.9439 10.846 33.5548 10.0905C25.6677 7.59564 18.6489 8.37141 14.7833 12.166C10.9691 15.9064 10.9801 22.0511 14.814 28.6048C18.0124 34.1039 18.0333 35.1481 18.0799 37.6716C18.1019 38.8724 18.1302 40.3652 18.541 42.9344C19.4951 48.8684 24.9183 55.8961 28.5437 55.8961C30.2877 55.8961 31.2602 54.3373 31.7679 53.0298C32.077 52.2327 32.2364 51.3653 32.2401 50.4501L32.2854 41.6472C32.2854 37.1986 34.8597 35.1705 37.2524 35.1705ZM46.0164 57.636C45.3799 57.636 44.7679 57.5168 44.1915 57.277C41.2334 56.0709 40.3001 52.1208 40.3001 51.1104V41.6513C40.3001 39.6971 39.7089 38.5571 39.2147 37.9442C38.6702 37.2709 37.9736 36.9 37.2524 36.9C35.7734 36.9 34.2759 38.5316 34.2759 41.6513L34.2305 50.4585C34.2257 51.5584 34.0307 52.6089 33.6542 53.5818C32.6411 56.189 30.826 57.6245 28.5437 57.6245C23.4369 57.6245 17.5942 49.5432 16.5702 43.1732C16.1422 40.4994 16.1115 38.8813 16.0906 37.7002C16.0477 35.3921 16.0306 34.5295 13.0393 29.3858C8.82292 22.1781 8.91858 15.3127 13.2932 11.0192C17.7218 6.67419 25.55 5.71944 34.2355 8.46506C36.1867 9.08214 38.3391 9.08318 40.289 8.46506C48.9867 5.71632 56.831 6.67419 61.273 11.0312C65.6488 15.3252 65.7482 22.188 61.5367 29.3879C58.5442 34.5014 58.5283 35.3646 58.4854 37.6716C58.4633 38.8589 58.4326 40.4859 58.0058 43.1711C57.2442 47.999 53.2154 54.868 48.652 57.0033C47.753 57.4242 46.8639 57.636 46.0164 57.636Z" fill="#F7F2E5"/>
<path d="M1.98926 62.3761H36.2896V2.06344H1.98926V62.3761ZM37.2854 64.1045H0.994591C0.445159 64.1045 0 63.7174 0 63.2403V1.19922C0 0.722107 0.445159 0.335007 0.994591 0.335007H37.2854C37.8349 0.335007 38.28 0.722107 38.28 1.19922V63.2403C38.28 63.7174 37.8349 64.1045 37.2854 64.1045Z" fill="#F7F2E5"/>
<path d="M26.5836 47.9502C26.5591 47.9502 26.5333 47.9492 26.5063 47.9471C25.9594 47.9107 25.5486 47.4965 25.5903 47.0189L26.8534 32.6497L26.8498 29.4582C26.8498 29.2865 26.9086 29.1205 27.0165 28.9775L29.3676 25.9139L27.1711 22.0996C26.9258 21.6719 27.1245 21.1532 27.6163 20.9399C28.1044 20.725 28.7041 20.8983 28.9518 21.3259L31.4071 25.5893C31.5653 25.8661 31.5433 26.1975 31.3445 26.4556L28.8402 29.7194V32.7158L27.5746 47.151C27.5353 47.6052 27.0987 47.9502 26.5836 47.9502Z" fill="#F7F2E5"/>
<path d="M29.4163 24.9304C29.1698 24.9304 28.9245 24.8519 28.7319 24.6926C28.3321 24.3649 28.3161 23.817 28.6939 23.4705L30.1386 22.1494V20.2857C30.1386 19.8081 30.5826 19.4215 31.1332 19.4215C31.6826 19.4215 32.1279 19.8081 32.1279 20.2857V22.4944C32.1279 22.716 32.0297 22.9293 31.8544 23.0891L30.1386 24.6609C29.9424 24.8409 29.6787 24.9304 29.4163 24.9304Z" fill="#F7F2E5"/>
<path d="M28.1531 29.2517C27.8943 29.2517 27.6344 29.1643 27.4406 28.9905L25.5396 27.2943C25.4219 27.1887 25.336 27.0597 25.2931 26.9182L24.4714 24.2943C24.3267 23.8343 24.6394 23.3578 25.1692 23.2334C25.6929 23.1085 26.246 23.3791 26.3907 23.8396L27.145 26.2491L28.8656 27.7845C29.2496 28.1263 29.241 28.6742 28.8473 29.0066C28.6535 29.1705 28.4033 29.2517 28.1531 29.2517Z" fill="#F7F2E5"/>
<path d="M23.7538 28.3833C23.3528 28.3833 22.975 28.171 22.8241 27.8261C22.6279 27.3802 22.8854 26.8807 23.3993 26.71L25.8975 25.8822C26.4102 25.7136 26.9866 25.9353 27.1828 26.3833C27.3778 26.8286 27.1203 27.3281 26.6064 27.4978L24.1082 28.3255C23.9917 28.364 23.8727 28.3833 23.7538 28.3833Z" fill="#F7F2E5"/>
<path d="M27.7766 34.364C27.5178 34.364 27.2603 34.2756 27.0653 34.1039C26.6814 33.762 26.6888 33.2142 27.0812 32.8806L29.4065 30.9051L30.2429 28.7292C30.417 28.2765 30.9812 28.0346 31.5024 28.1839C32.0236 28.3363 32.3045 28.8244 32.1304 29.2781L31.2179 31.6501C31.1676 31.7823 31.083 31.8994 30.9701 31.9961L28.4719 34.1179C28.2794 34.2808 28.0268 34.364 27.7766 34.364Z" fill="#F7F2E5"/>
</svg>
