<svg width="92" height="86" viewBox="0 0 92 86" fill="none" xmlns="http://www.w3.org/2000/svg">
<path d="M91.8594 42.6489C91.8594 66.2041 71.2958 85.2979 45.9303 85.2979C20.5636 85.2979 0 66.2041 0 42.6489C0 19.0952 20.5636 0 45.9303 0C71.2958 0 91.8594 19.0952 91.8594 42.6489Z" fill="#F7F2E5"/>
<path d="M46.2985 44.7632C47.6685 44.7632 49.1416 45.9482 49.1416 48.5469V53.689C49.1449 54.0312 49.5487 55.5918 50.3811 55.9551C50.4985 56.0068 50.8378 56.1582 51.4818 55.834C53.2092 54.9712 55.1971 51.751 55.5719 49.21C55.7775 47.8208 55.7916 47.0132 55.8034 46.3643C55.8293 44.877 55.9187 44.2168 57.4963 41.3359C59.4563 37.7539 59.41 34.459 57.3714 32.5249C55.1432 30.4121 51.0338 30.3188 46.6443 32.2822C46.4289 32.3779 46.1769 32.3779 45.9615 32.2822C41.5785 30.3232 37.4754 30.4121 35.2549 32.519C33.2173 34.4521 33.1732 37.749 35.1364 41.3369C36.7129 44.2329 36.8023 44.894 36.8282 46.3799C36.8401 47.0249 36.853 47.8281 37.0597 49.208C37.5196 52.2671 40.172 56.0288 41.8682 56.0288C42.9085 56.0288 43.3662 54.4448 43.4652 53.7822L43.4911 48.5439C43.4911 45.9482 44.946 44.7632 46.2985 44.7632ZM50.7592 57.498C50.3305 57.498 49.9752 57.396 49.7059 57.2759C47.9624 56.5161 47.5672 54.1011 47.5672 53.689V48.5469C47.5672 47.0391 46.9135 46.2251 46.2985 46.2251C45.7009 46.2251 45.0656 47.0391 45.0656 48.5469L45.0397 53.835C45.0397 53.8643 45.0376 53.8931 45.0343 53.9219C44.8555 55.248 43.9875 57.4912 41.8682 57.4912C38.9282 57.4912 35.9786 52.5889 35.5004 49.4102C35.2807 47.9409 35.2645 47.0532 35.2538 46.4038C35.2322 45.1929 35.2247 44.7402 33.7311 41.998C31.448 37.8262 31.5966 33.8989 34.1295 31.4961C36.7755 28.9858 41.4148 28.7339 46.3029 30.8149C51.1975 28.731 55.8443 28.9858 58.4967 31.502C61.0307 33.9062 61.1815 37.8301 58.9006 41.999C57.408 44.7251 57.4005 45.144 57.3779 46.3882C57.3671 47.04 57.3509 47.9331 57.1313 49.4092C56.7349 52.0952 54.6242 55.9238 52.2292 57.1221C51.6756 57.3989 51.1813 57.498 50.7592 57.498Z" fill="#435549"/>
<path d="M69.4004 34.8701C68.9654 34.8701 68.6133 34.543 68.6133 34.1392V21.5698H23.2107V34.1392C23.2107 34.543 22.8585 34.8701 22.4245 34.8701C21.9883 34.8701 21.6362 34.543 21.6362 34.1392V20.8389C21.6362 20.4351 21.9883 20.1079 22.4245 20.1079H69.4004C69.8356 20.1079 70.1877 20.4351 70.1877 20.8389V34.1392C70.1877 34.543 69.8356 34.8701 69.4004 34.8701Z" fill="#435549"/>
<path d="M69.4004 65.1909H22.4245C21.9883 65.1909 21.6362 64.8643 21.6362 64.46V51.1611C21.6362 50.7568 21.9883 50.4302 22.4245 50.4302C22.8585 50.4302 23.2107 50.7568 23.2107 51.1611V63.729H68.6133V51.1611C68.6133 50.7568 68.9654 50.4302 69.4004 50.4302C69.8356 50.4302 70.1877 50.7568 70.1877 51.1611V64.46C70.1877 64.8643 69.8356 65.1909 69.4004 65.1909Z" fill="#435549"/>
<path d="M74.3618 43.3809H17.4977C17.0626 43.3809 16.7104 43.0542 16.7104 42.6499C16.7104 42.2461 17.0626 41.9189 17.4977 41.9189H74.3618C74.7968 41.9189 75.149 42.2461 75.149 42.6499C75.149 43.0542 74.7968 43.3809 74.3618 43.3809Z" fill="#435549"/>
</svg>
