<svg width="52" height="46" viewBox="0 0 52 46" fill="none" xmlns="http://www.w3.org/2000/svg">
<path d="M29.8081 45.2988C30.4642 45.6453 31.2283 45.5456 32.1079 44.9736C32.9933 44.3978 33.9157 43.3867 34.7778 42.0957C36.5003 39.5163 37.8853 35.9705 38.2476 33.0537V33.0527C38.4782 31.2099 38.5468 29.9357 38.5737 28.9453C38.6002 27.9724 38.5863 27.2104 38.6509 26.4717C38.7848 24.9388 39.2569 23.4305 40.9731 19.7051C44.3736 12.3235 43.5133 6.36856 40.2964 3.17188C37.0865 -0.0175287 31.3031 -0.682783 24.3667 3.00195L24.1323 3.12695L23.8979 3.00195C16.9611 -0.68302 11.1879 -0.0168058 7.98779 3.17188C4.78019 6.36821 3.92843 12.3229 7.32959 19.7051L7.33057 19.7061C9.04682 23.4529 9.51807 24.9708 9.65186 26.5029C9.71634 27.2415 9.70251 28.0011 9.729 28.9688C9.75598 29.9539 9.82434 31.2201 10.0552 33.0527C10.3992 35.7696 11.5828 38.921 13.0845 41.3887C13.8347 42.6215 14.6522 43.6628 15.4644 44.3896C16.2866 45.1255 17.0442 45.4872 17.6841 45.4873C18.6365 45.4873 19.3382 44.7814 19.8491 43.7324C20.3453 42.7136 20.5771 41.5261 20.6509 40.8945L20.688 31.7988C20.6882 29.9579 21.0711 28.5333 21.6919 27.5537C22.3148 26.5709 23.201 26.0121 24.1587 26.0254C25.1127 26.0387 25.9923 26.6175 26.6118 27.6006C27.2312 28.5834 27.6147 29.9974 27.6147 31.8008V40.6826C27.6147 40.9787 27.7571 41.9482 28.1294 42.9629C28.5073 43.9927 29.0674 44.9149 29.8052 45.2969L29.8081 45.2988ZM20.1968 40.8018L20.1909 40.8389C20.0551 41.7386 19.8207 42.5672 19.5181 43.2295C19.2255 43.8696 18.8313 44.439 18.3257 44.7031L18.3208 44.7051L18.1724 44.7705C17.8229 44.8996 17.4542 44.8735 17.1079 44.7598C16.7189 44.6319 16.3294 44.3864 15.9546 44.0732C15.2034 43.4456 14.4177 42.4709 13.688 41.3145C12.2278 39.0001 10.9189 35.8371 10.5532 32.9326C10.318 31.0943 10.2479 29.8002 10.2173 28.7715C10.1862 27.7292 10.196 27.0146 10.1235 26.2656C9.98303 24.8127 9.52965 23.2638 7.7251 19.3438C5.492 14.519 5.08659 9.9929 6.37158 6.63281C7.67265 3.2312 10.6745 1.11538 15.0005 1.11523C17.7515 1.11523 20.8906 2.00961 24.0767 3.7666L24.0952 3.77734L24.1128 3.78906C24.115 3.79051 24.1276 3.79783 24.1558 3.79785C24.1841 3.79785 24.2224 3.79005 24.2632 3.76758L24.2642 3.7666C30.7843 0.180096 36.5389 0.399381 39.855 3.51758C43.067 6.53819 43.7451 12.0478 40.8657 18.6973L40.5767 19.3447C38.7725 23.264 38.3196 24.8129 38.1792 26.2656C38.1068 27.0147 38.1165 27.7292 38.0854 28.7715C38.0586 29.6717 38.0013 30.7752 37.8296 32.2686L37.7485 32.9326C37.4412 35.3683 36.5517 37.842 35.4575 39.8945C34.3713 41.9321 33.0471 43.6211 31.8276 44.4297H31.8286C31.2011 44.8498 30.5781 44.9397 30.0161 44.6895C29.4973 44.4583 29.1343 43.98 28.8813 43.5029C28.3715 42.5409 28.1463 41.2719 28.106 40.6748L28.105 40.6582V31.8008C28.105 27.3542 25.9656 25.4074 24.146 25.3906C22.3371 25.3743 20.1968 27.2671 20.1968 31.8008V40.8018Z" fill="#3E5648" stroke="#3E5648"/>
<path d="M40.501 10.4521C40.6399 10.452 40.7559 10.336 40.7559 10.1973C40.7559 6.62777 37.8127 3.71484 34.2354 3.71484C34.1306 3.71492 34.086 3.75006 34.0615 3.77832C34.0283 3.81671 34.0001 3.88434 34 3.96973C34 4.05505 34.0283 4.12266 34.0615 4.16113C34.086 4.1894 34.1306 4.22453 34.2354 4.22461C37.5261 4.22461 40.2461 6.89767 40.2461 10.1973C40.2461 10.336 40.362 10.4521 40.501 10.4521Z" fill="#3E5648" stroke="#3E5648"/>
<path d="M22.5 22.5153C17.5 22.5153 16.5 17.2153 16.5 17.2153C16.5 17.2153 19 18.5153 22 18.5153C25 18.5153 27 17.2153 27 17.2153C27 17.2153 27.5 22.5153 22.5 22.5153Z" stroke="#3E5648"/>
<path d="M8 20.2153C8 20.2153 0.499888 24.2153 0.5 26.7153C0.500112 29.2153 8 32.2153 8 32.2153" stroke="#3E5648" stroke-linecap="round"/>
<path d="M39 24.2153C45.1994 20.4722 47.7609 17.643 50 10.7153" stroke="#3E5648" stroke-linecap="round"/>
<path d="M7.85115 33.3182C8.04822 33.3774 8.58337 33.63 9.08512 34.0816C9.20724 34.1915 9.28477 34.2924 9.26457 34.2797C8.83406 34.0083 8.528 33.5964 8.19477 33.2578C8.11409 33.1758 8.07361 33.0699 8.07538 32.9527C8.07929 32.6935 8.43411 32.3929 8.90113 32.1387C9.28407 31.9303 9.65709 32.0427 9.78071 32.0386C10.1396 32.0266 8.89963 32.0802 8.34797 32.0286C8.2217 32.0167 8.11101 32.009 8.02836 32.0542C7.85474 32.1491 7.78785 32.3996 7.72172 32.5998C7.68893 32.6991 7.73862 32.8117 7.89954 32.8729C8.06047 32.934 8.3518 32.9449 8.46213 32.9058C8.57247 32.8666 8.49297 32.7771 8.39591 32.7206C8.29885 32.6641 8.18662 32.6434 8.15268 32.6883C8.11875 32.7332 8.1665 32.8443 8.23729 32.936C8.37721 33.1171 8.75072 33.1771 9.14369 33.1361C9.2816 33.0855 9.29464 32.9745 9.26791 32.8734C9.24119 32.7723 9.17431 32.6846 9.0367 32.5367" stroke="#3E5648" stroke-width="2" stroke-linecap="round"/>
<path d="M48.6584 8.36582C48.8115 8.37971 49.4817 8.60855 49.9406 8.94856C50.034 9.01776 50.0849 9.12556 50.1244 9.11831C50.4714 9.05466 50.4757 8.29067 50.6251 7.81376C50.661 7.69886 50.7749 8.30639 50.741 8.83106C50.7273 9.0426 50.6392 9.13383 50.5467 9.20596C50.3579 9.35335 50.1129 9.40111 49.9219 9.38202C49.8282 9.37264 49.7848 9.2208 49.7813 9.21713C49.6998 9.1319 49.9291 9.53894 50.0506 9.71987C50.1113 9.8103 50.2055 9.87148 50.2612 9.84126C50.3247 9.40311 50.2792 8.9789 50.3285 8.71645C50.3437 8.58677 50.3389 8.4642 50.27 8.22069" stroke="#3E5648" stroke-width="2" stroke-linecap="round"/>
<path d="M29.7667 9.21533C27.1 9.21536 25.5 11.7153 25.5 11.7153C25.5 11.7153 26.0333 14.2153 29.7667 14.2153C33.5 14.2153 33.5 11.7153 33.5 11.7153C33.5 11.7153 32.4333 9.21531 29.7667 9.21533Z" stroke="#3E5648"/>
<path d="M26.5 11.098C31.308 11.451 33.4312 11.059 36.5 9.21533" stroke="#3E5648" stroke-linecap="round"/>
<path d="M29.5638 14.2153C28.5 14.2153 28.5 12.5999 28.5 12.5999C28.5 12.5999 28.633 11.2153 29.5638 11.2153C29.8816 11.2153 30.0909 11.3767 30.2287 11.5892C30.4947 11.9993 30.4947 12.5999 30.4947 12.5999C30.4947 12.5999 30.6277 14.2153 29.5638 14.2153Z" fill="#3E5648"/>
<path d="M30.2287 11.5892C30.4947 11.9993 30.4947 12.5999 30.4947 12.5999C30.4947 12.5999 30.6277 14.2153 29.5638 14.2153C28.5 14.2153 28.5 12.5999 28.5 12.5999C28.5 12.5999 28.633 11.2153 29.5638 11.2153C29.8816 11.2153 30.0909 11.3767 30.2287 11.5892" stroke="#3E5648" stroke-linecap="round"/>
<path d="M32.5 10.2153L34.5 8.21533" stroke="#3E5648" stroke-linecap="round"/>
<path d="M13.5 8.71533L17.5 11.7153L13.5 14.2153" stroke="#3E5648" stroke-linecap="round"/>
</svg>
