<svg width="42" height="37" viewBox="0 0 42 37" fill="none" xmlns="http://www.w3.org/2000/svg">
<path d="M24.1194 36.3496C24.6041 36.6056 25.1797 36.5419 25.8704 36.0928C26.5668 35.6398 27.2997 34.8386 27.9895 33.8057C29.2814 31.8711 30.3363 29.2555 30.7014 27.0166L30.7649 26.5742C30.95 25.0953 31.005 24.0732 31.0266 23.2793C31.0477 22.5029 31.0369 21.8812 31.0891 21.2832C31.1985 20.0321 31.5845 18.8055 32.9651 15.8086C35.6909 9.89148 34.9883 5.15204 32.4417 2.62109C29.9019 0.0973027 25.3016 -0.451561 19.7434 2.50098L19.509 2.62598L19.2737 2.50098C13.7151 -0.451736 9.12291 0.0971659 6.59106 2.62012C4.05166 5.15064 3.35583 9.89081 6.08228 15.8086L6.08325 15.8096C7.46396 18.8238 7.85 20.0582 7.95923 21.3086C8.01142 21.9063 7.99962 22.5259 8.02075 23.2979C8.04237 24.0873 8.09728 25.1028 8.28247 26.5732C8.55715 28.7431 9.50444 31.2652 10.7063 33.2402C11.3065 34.2265 11.958 35.0556 12.6018 35.6318C13.2558 36.2171 13.843 36.4893 14.3225 36.4893C15.0303 36.489 15.5688 35.9672 15.9749 35.1338C16.3664 34.33 16.5514 33.3896 16.6106 32.8867L16.6409 25.5762C16.6412 24.0836 16.9511 22.9183 17.4631 22.1104C17.9773 21.2992 18.718 20.8249 19.5305 20.8359C20.3397 20.8472 21.0753 21.3378 21.5862 22.1484C22.0967 22.9587 22.4074 24.1152 22.4075 25.5781V32.7236C22.4076 32.9478 22.5192 33.7153 22.8157 34.5234C23.1179 35.3471 23.5574 36.0582 24.1165 36.3477L24.1194 36.3496ZM16.4407 32.8262L16.4358 32.8633C16.3255 33.594 16.1339 34.2689 15.886 34.8115C15.648 35.3322 15.3195 35.816 14.8831 36.0439L14.8792 36.0459L14.7483 36.1035C14.442 36.2166 14.122 36.1921 13.8284 36.0957C13.4994 35.9876 13.1752 35.7817 12.8684 35.5254C12.2533 35.0115 11.6154 34.2179 11.0256 33.2832C9.84525 31.4125 8.78592 28.8553 8.4895 26.502C8.29985 25.0197 8.24275 23.9756 8.21802 23.1455C8.19288 22.3017 8.20067 21.7339 8.14282 21.1357C8.03146 19.9848 7.67337 18.7515 6.2229 15.6006C4.41986 11.7052 4.08505 8.03639 5.1311 5.30078C6.19322 2.52348 8.64654 0.798973 12.1633 0.798828C14.3965 0.798828 16.9376 1.52521 19.511 2.94434L19.5295 2.95508L19.5305 2.95605C19.5375 2.95548 19.5504 2.95331 19.5667 2.94434H19.5676C24.8298 0.0497717 29.5102 0.207926 32.2219 2.75781C34.8487 5.22778 35.3821 9.71035 33.0579 15.0781L32.8245 15.6006C31.374 18.7515 31.0158 19.9847 30.9045 21.1357C30.8467 21.734 30.8545 22.3017 30.8293 23.1455C30.8108 23.7681 30.7744 24.5109 30.677 25.4688L30.5579 26.502C30.3088 28.4751 29.5889 30.4765 28.7043 32.1357C27.8277 33.7801 26.753 35.1548 25.7522 35.8184H25.7532C25.2278 36.17 24.6913 36.2533 24.2014 36.0352C23.7545 35.836 23.4488 35.4284 23.2415 35.0371C22.8228 34.2471 22.6407 33.2121 22.6077 32.7236L22.6067 32.707V25.5781C22.6065 22.0251 20.9027 20.5333 19.5188 20.5205C18.1456 20.508 16.4408 21.9539 16.4407 25.5781V32.8262Z" fill="#3E5648" stroke="#3E5648"/>
<path d="M32.6743 8.30933C32.7321 8.30933 32.7817 8.25949 32.7817 8.2019C32.7816 5.38562 30.4593 3.08668 27.6353 3.08667C27.6019 3.08667 27.5855 3.09229 27.5806 3.09448C27.5758 3.09666 27.5723 3.09924 27.5688 3.10327C27.5595 3.11414 27.5435 3.14481 27.5435 3.19312C27.5435 3.2413 27.5595 3.27198 27.5688 3.28296C27.5723 3.28696 27.5759 3.28958 27.5806 3.29175C27.5855 3.29394 27.6019 3.30054 27.6353 3.30054C30.3352 3.30055 32.5668 5.4931 32.5669 8.2019C32.5669 8.25941 32.6166 8.30923 32.6743 8.30933Z" fill="#3E5648" stroke="#3E5648"/>
<path d="M18.1956 18.1101C14.1739 18.1101 13.3695 13.8471 13.3695 13.8471C13.3695 13.8471 15.3804 14.8928 17.7934 14.8927C20.2065 14.8927 21.8152 13.8471 21.8152 13.8471C21.8152 13.8471 22.2173 18.1101 18.1956 18.1101Z" stroke="#3E5648"/>
<path d="M6.53261 16.2601C6.53261 16.2601 0.49991 19.4775 0.5 21.4884C0.50009 23.4993 6.53261 25.9123 6.53261 25.9123" stroke="#3E5648" stroke-linecap="round"/>
<path d="M31.4674 19.4775C36.4539 16.4667 38.5143 14.1911 40.3152 8.61884" stroke="#3E5648" stroke-linecap="round"/>
<path d="M6.41282 26.7994C6.57134 26.8471 7.00178 27.0502 7.40537 27.4135C7.50359 27.5019 7.56595 27.583 7.5497 27.5728C7.20343 27.3545 6.95725 27.0232 6.68922 26.7509C6.62432 26.6849 6.59176 26.5997 6.59318 26.5054C6.59633 26.2969 6.88173 26.0552 7.25737 25.8508C7.56539 25.6831 7.86543 25.7735 7.96486 25.7702C8.25357 25.7606 7.25617 25.8037 6.81244 25.7621C6.71088 25.7526 6.62184 25.7464 6.55536 25.7827C6.41571 25.8591 6.36191 26.0606 6.30871 26.2216C6.28235 26.3015 6.32231 26.3921 6.45175 26.4413C6.58119 26.4904 6.81552 26.4992 6.90427 26.4677C6.99301 26.4362 6.92907 26.3642 6.851 26.3188C6.77293 26.2733 6.68266 26.2567 6.65536 26.2928C6.62806 26.3289 6.66647 26.4183 6.72342 26.492C6.83596 26.6377 7.13639 26.6859 7.45248 26.653C7.56341 26.6123 7.57389 26.523 7.55239 26.4417C7.5309 26.3603 7.4771 26.2898 7.36641 26.1708" stroke="#3E5648" stroke-width="2" stroke-linecap="round"/>
<path d="M39.2361 6.72904C39.3592 6.74021 39.8983 6.92428 40.2674 7.19777C40.3425 7.25343 40.3834 7.34014 40.4152 7.33431C40.6944 7.2831 40.6978 6.66859 40.8179 6.28499C40.8469 6.19257 40.9385 6.68124 40.9112 7.10326C40.9002 7.27341 40.8293 7.34679 40.7549 7.4048C40.603 7.52335 40.406 7.56178 40.2524 7.54642C40.177 7.53888 40.1421 7.41674 40.1393 7.41379C40.0737 7.34524 40.2581 7.67264 40.3558 7.81817C40.4047 7.89091 40.4805 7.94011 40.5252 7.91581C40.5764 7.56338 40.5397 7.22217 40.5794 7.01107C40.5916 6.90676 40.5877 6.80817 40.5323 6.6123" stroke="#3E5648" stroke-width="2" stroke-linecap="round"/>
<path d="M24.0405 7.41229C21.8956 7.41231 20.6086 9.42316 20.6086 9.42316C20.6086 9.42316 21.0376 11.434 24.0405 11.434C27.0434 11.434 27.0434 9.42316 27.0434 9.42316C27.0434 9.42316 26.1855 7.41227 24.0405 7.41229Z" stroke="#3E5648"/>
<path d="M21.413 8.92661C25.2803 9.21052 26.9881 8.89523 29.4564 7.41229" stroke="#3E5648" stroke-linecap="round"/>
<path d="M23.8774 11.434C23.0217 11.434 23.0217 10.1347 23.0217 10.1347C23.0217 10.1347 23.1287 9.02099 23.8774 9.021C24.133 9.021 24.3013 9.15078 24.4122 9.32174C24.6261 9.65158 24.6261 10.1347 24.6261 10.1347C24.6261 10.1347 24.7331 11.434 23.8774 11.434Z" fill="#3E5648"/>
<path d="M24.4122 9.32174C24.6261 9.65158 24.6261 10.1347 24.6261 10.1347C24.6261 10.1347 24.7331 11.434 23.8774 11.434C23.0217 11.434 23.0217 10.1347 23.0217 10.1347C23.0217 10.1347 23.1287 9.02099 23.8774 9.021C24.133 9.021 24.3013 9.15078 24.4122 9.32174" stroke="#3E5648" stroke-linecap="round"/>
<path d="M26.2391 8.21667L27.8478 6.60797" stroke="#3E5648" stroke-linecap="round"/>
<path d="M13.5841 7.73676C11.4392 7.73678 10.1522 9.74762 10.1522 9.74762C10.1522 9.74762 10.5812 11.7585 13.5841 11.7585C16.587 11.7585 16.587 9.74762 16.587 9.74762C16.587 9.74762 15.729 7.73674 13.5841 7.73676Z" stroke="#3E5648"/>
<path d="M8.58193 7.51155C11.9998 9.34333 13.6882 9.74964 16.5463 9.39841" stroke="#3E5648" stroke-linecap="round"/>
<path d="M13.4209 11.7585C12.5652 11.7585 12.5652 10.4592 12.5652 10.4592C12.5652 10.4592 12.6721 9.34545 13.4209 9.34546C13.6765 9.34546 13.8448 9.47524 13.9557 9.6462C14.1696 9.97605 14.1696 10.4592 14.1696 10.4592C14.1696 10.4592 14.2766 11.7585 13.4209 11.7585Z" fill="#3E5648"/>
<path d="M13.9557 9.6462C14.1696 9.97605 14.1696 10.4592 14.1696 10.4592C14.1696 10.4592 14.2766 11.7585 13.4209 11.7585C12.5652 11.7585 12.5652 10.4592 12.5652 10.4592C12.5652 10.4592 12.6721 9.34545 13.4209 9.34546C13.6765 9.34546 13.8448 9.47524 13.9557 9.6462" stroke="#3E5648" stroke-linecap="round"/>
<path d="M11.7609 8.54108L10.1522 6.93238" stroke="#3E5648" stroke-linecap="round"/>
</svg>
