<svg width="104" height="28" viewBox="0 0 104 28" fill="none" xmlns="http://www.w3.org/2000/svg">
<path fill-rule="evenodd" clip-rule="evenodd" d="M27.866 13.9332C27.866 21.6282 21.627 27.8662 13.933 27.8662C6.23792 27.8662 0 21.6282 0 13.9332C0 6.23822 6.23792 0.000213623 13.933 0.000213623C21.627 0.000213623 27.866 6.23822 27.866 13.9332Z" fill="#F7F2E5"/>
<path fill-rule="evenodd" clip-rule="evenodd" d="M9.87022 6.58661H17.9756C19.8004 6.58661 21.2854 8.0726 21.2854 9.89859V17.9676C21.2854 19.7936 19.8004 21.2796 17.9756 21.2796H9.87022C8.04554 21.2796 6.56048 19.7936 6.56048 17.9676V9.89859C6.56048 8.0726 8.04554 6.58661 9.87022 6.58661ZM13.9015 10.7486H13.9445C15.6842 10.7486 17.1272 12.1926 17.1272 13.9336C17.1272 15.7166 15.6842 17.1606 13.9445 17.1606H13.9015C12.1616 17.1606 10.7186 15.7166 10.7186 13.9336C10.7186 12.1926 12.1616 10.7486 13.9015 10.7486ZM13.9015 9.09161H13.9445C16.5756 9.09161 18.7821 11.3006 18.7821 13.9336C18.7821 16.6086 16.5756 18.7746 13.9445 18.7746H13.9015C11.2703 18.7746 9.10671 16.6086 9.10671 13.9336C9.10671 11.3006 11.2703 9.09161 13.9015 9.09161ZM18.6972 8.15759C19.2488 8.15759 19.7155 8.6246 19.7155 9.17661C19.7155 9.72861 19.2488 10.1966 18.6972 10.1966C18.1026 10.1966 17.6788 9.72861 17.6788 9.17661C17.6788 8.6246 18.1026 8.15759 18.6972 8.15759ZM9.82826 5.05759H18.0177C20.6489 5.05759 22.8134 7.2236 22.8134 9.8566V18.0096C22.8134 20.6426 20.6489 22.8086 18.0177 22.8086H9.82826C7.19713 22.8086 5.03259 20.6426 5.03259 18.0096V9.8566C5.03259 7.2236 7.19713 5.05759 9.82826 5.05759Z" fill="#435549"/>
<path fill-rule="evenodd" clip-rule="evenodd" d="M65.7321 13.9332C65.7321 21.6282 59.494 27.8662 51.7991 27.8662C44.104 27.8662 37.866 21.6282 37.866 13.9332C37.866 6.23822 44.104 0.000213623 51.7991 0.000213623C59.494 0.000213623 65.7321 6.23822 65.7321 13.9332Z" fill="#F7F2E5"/>
<path fill-rule="evenodd" clip-rule="evenodd" d="M103.598 13.9332C103.598 21.6282 97.3601 27.8662 89.665 27.8662C81.9701 27.8662 75.7321 21.6282 75.7321 13.9332C75.7321 6.23822 81.9701 0.000213623 89.665 0.000213623C97.3601 0.000213623 103.598 6.23822 103.598 13.9332Z" fill="#F7F2E5"/>
<path fill-rule="evenodd" clip-rule="evenodd" d="M49.2592 24.4463H53.0577V15.6783H55.8637L56.4244 12.1363H53.0577V9.45828C53.0577 8.46429 54.007 7.90329 54.9133 7.90329H56.5543V4.96628L53.6193 4.83627C50.8132 4.6633 49.2592 6.8663 49.2592 9.50128V12.1363H46.0654V15.6783H49.2592V24.4463Z" fill="#435549"/>
<path fill-rule="evenodd" clip-rule="evenodd" d="M97.0145 9.63437C96.1591 9.51736 95.4196 9.05035 94.797 8.34937C94.0585 7.53238 93.6299 6.44235 93.6689 5.39136H92.8134H90.5959V12.6314V17.6534C90.5959 19.0934 89.4288 20.2614 87.9508 20.2614C87.0954 20.2614 86.3169 19.8334 85.8112 19.1714C85.5004 18.7434 85.3445 18.1984 85.3445 17.6534C85.3445 16.2134 86.5117 15.0454 87.9508 15.0454C88.2225 15.0454 88.4954 15.0844 88.7282 15.1624V12.0484C88.4954 12.0094 88.2225 11.9704 87.9508 11.9704H87.8338C84.722 12.0484 82.2717 14.5784 82.2717 17.6534C82.2717 19.1324 82.8543 20.4954 83.7886 21.5074C84.8389 22.5974 86.3169 23.2974 87.9508 23.2974C91.1016 23.2974 93.6689 20.7674 93.6689 17.6534V11.2694C94.8361 12.3204 96.353 12.8264 97.9089 12.7094V9.63437C97.5981 9.71237 97.2864 9.71237 97.0145 9.63437Z" fill="#435549"/>
</svg>
