<svg width="190" height="67" viewBox="0 0 190 67" fill="none" xmlns="http://www.w3.org/2000/svg">
<path d="M36.9948 64.9985C52.6168 59.1533 69.0248 55.1801 85.7888 53.1284C83.2008 53.4404 80.6128 53.7534 78.0248 54.0664C92.5608 52.3354 107.815 51.6513 122.397 53.3842C119.809 53.0713 117.221 52.7583 114.633 52.4463C116.711 52.7231 118.723 53.1362 120.673 53.8481C118.348 52.9653 116.022 52.0835 113.696 51.2011C114.811 51.6523 115.843 52.1762 116.821 52.8383C114.851 51.4692 112.88 50.1015 110.91 48.7324C111.601 49.2544 112.202 49.8134 112.764 50.4482C111.241 48.6762 109.719 46.9052 108.196 45.1342C108.724 45.7934 109.159 46.4663 109.531 47.205L106.587 40.9331C106.91 41.6743 107.134 42.4023 107.267 43.1884C106.919 40.8613 106.571 38.5351 106.223 36.2085C106.285 36.8271 106.281 37.4121 106.204 38.0293C106.551 35.7031 106.899 33.3755 107.247 31.0493C107.151 31.5112 107.03 31.9243 106.857 32.3672L109.802 26.0952C109.675 26.3842 109.524 26.6631 109.348 26.9301C104.343 35.2744 103.932 45.1162 109.348 53.4365C114.637 61.5615 124.205 66.2304 134.568 66.4414C141.648 66.5854 149.056 65.7231 155.812 63.7851C160.263 62.5092 164.651 60.8144 168.81 58.9194C170.945 57.9463 172.96 56.7954 174.877 55.5092C178.281 53.8593 181.013 51.6045 183.072 48.7461C185.654 46.2104 187.396 43.2334 188.3 39.8164C189.517 36.3261 189.691 32.8364 188.822 29.3462C188.645 25.8515 187.49 22.5971 185.356 19.5835C181.335 13.9775 175.347 9.04147 167.9 7.51608C165.312 7.20309 162.723 6.89108 160.135 6.57809C154.863 6.59323 149.949 7.78805 145.393 10.1631C142.768 11.9253 139.966 13.3833 136.966 14.5644C139.292 13.6821 141.618 12.8003 143.943 11.9174C140.521 13.2075 136.974 14.0893 133.301 14.5605C135.889 14.2485 138.477 13.9355 141.066 13.6225C138.904 13.8672 136.746 13.9692 134.568 13.9253C142.975 27.0952 151.382 40.2661 159.789 53.4365C161.265 50.9751 162.697 48.3911 163.42 45.6762C163.783 44.3134 163.891 42.9082 164.098 41.5195C164.274 40.3452 164.681 38.5371 164.698 37.1235C164.701 36.8154 164.663 36.5151 164.64 36.2085C164.467 33.9311 164.027 31.0005 163.52 28.7705C162.911 26.0942 160.961 22.5815 159.972 20.6992C158.347 17.6045 155.834 14.8432 153.197 12.4033C151.1 10.4614 148.359 8.71334 145.884 7.20749C145.019 6.68014 144.127 6.24752 143.18 5.85543C139.516 4.3403 135.724 2.7114 131.72 2.03513C127.509 1.32321 123.219 0.854462 118.944 0.541473C114.689 0.229462 110.419 0.0605164 106.151 0.0131531C97.7018 -0.0805969 89.2468 0.327118 80.8578 1.22751C70.0988 2.38132 59.3998 3.80514 48.8828 6.17428C39.5288 8.28122 30.3678 11.0273 21.4658 14.3584C17.6648 15.1704 14.3538 16.7373 11.5328 19.0581C8.35283 20.9101 5.84483 23.3652 4.00982 26.4253C1.87483 29.4394 0.719815 32.6933 0.54382 36.1884C-0.326175 39.6782 -0.152179 43.1684 1.06482 46.6582C3.35182 53.0122 7.73182 59.1421 14.4878 62.3515C16.8138 63.2334 19.1398 64.1162 21.4658 64.9985C26.6418 66.2485 31.8188 66.2485 36.9948 64.9985Z" fill="#B9CEBE"/>
</svg>
