<svg width="275" height="70" viewBox="0 0 275 70" fill="none" xmlns="http://www.w3.org/2000/svg">
<path d="M22.0156 51.0244C40.6716 52.6433 59.5266 52.7043 78.1966 51.1753C98.5476 49.5073 118.659 46.5393 138.115 41.5674C143.207 40.2663 148.247 38.8423 153.225 37.2964C157.641 35.9253 161.958 34.3213 166.691 33.7253C164.741 33.9282 162.792 34.1323 160.842 34.3352C162.273 34.1963 163.655 34.1614 165.091 34.2864C163.141 34.0832 161.192 33.8803 159.242 33.6762C160.154 33.8003 160.992 33.9792 161.852 34.2444C160.1 33.6704 158.349 33.0962 156.597 32.5222C157.238 32.7644 157.793 33.0193 158.378 33.3374C156.894 32.4472 155.409 31.5564 153.925 30.6662C154.442 30.9973 154.879 31.3164 155.323 31.7033C154.176 30.5512 153.029 29.3994 151.883 28.2463C152.37 28.7434 152.756 29.2412 153.092 29.8083L150.874 25.7282C151.157 26.3074 151.35 26.8733 151.484 27.4834C151.222 25.9702 150.96 24.4563 150.698 22.9433C150.808 23.7344 150.799 24.4912 150.687 25.2803C150.949 23.7673 151.211 22.2534 151.473 20.7402C151.272 21.7143 150.934 22.6252 150.451 23.5383L152.669 19.4582C152.217 20.2143 151.7 20.9114 151.084 21.5923C152.23 20.4402 153.377 19.2883 154.524 18.1352C153.741 18.9204 152.888 19.5993 151.881 20.2134C153.365 19.3222 154.849 18.4324 156.333 17.5422C155.034 18.2553 153.687 18.8303 152.225 19.3193C153.977 18.7453 155.729 18.1714 157.481 17.5974C154.991 18.3484 152.432 18.7812 149.791 19.0622C151.74 18.8584 153.69 18.6553 155.639 18.4514C146.274 19.3232 136.696 19.3064 127.278 19.6504C117.192 20.0183 107.106 20.3862 97.0196 20.7544C87.8126 21.0903 78.3466 21.5044 69.4296 23.4192C64.4766 24.4834 59.4666 26.0102 55.0896 28.1084C48.7796 31.1343 44.6556 34.6103 40.3096 39.1614C36.2456 43.4162 36.7156 49.7912 39.2006 54.3633C41.7736 59.0962 46.8336 63.0034 53.4576 64.2534C78.7306 69.0212 105.241 70.7392 131.145 68.7622C144.66 67.7312 158.139 66.0554 171.274 63.3513C184.664 60.5952 197.584 56.7234 210.184 52.2732C222.766 47.8283 234.903 42.6562 247.631 38.4553C245.879 39.0293 244.127 39.6032 242.375 40.1772C247.514 38.5034 252.731 36.9983 258.075 35.7654C263.449 34.5244 268.372 31.6982 271.223 27.9153C273.983 24.2534 275.152 18.8584 273.441 14.7534C271.718 10.6203 268.419 6.6323 263.331 4.54539C258.151 2.42039 252.131 1.49534 246.378 2.82322C223.894 8.01121 203.809 17.6094 182.344 24.6972C184.095 24.1233 185.847 23.5493 187.599 22.9753C170.161 28.6653 151.828 32.5122 133.09 34.5053L138.938 33.8952C119.9 35.8594 100.614 35.8943 81.5696 33.9573C83.5186 34.1604 85.4686 34.3642 87.4176 34.5674C79.9266 33.7812 72.5016 32.6972 65.1556 31.3113C69.5376 39.6753 73.9206 48.0393 78.3036 56.4033C78.4406 56.2593 78.5786 56.1152 78.7156 55.9724C77.5686 57.1242 76.4226 58.2763 75.2756 59.4292C76.5406 58.1863 77.9566 57.0923 79.5556 56.1103C78.0716 57.0002 76.5876 57.8904 75.1036 58.7812C77.0896 57.6272 79.2166 56.7063 81.4926 55.9424C79.7406 56.5163 77.9886 57.0903 76.2366 57.6643C80.3716 56.3493 84.7106 55.6062 89.1236 55.1242C87.1746 55.3283 85.2246 55.5312 83.2756 55.7344C89.5846 55.0903 95.9536 54.9553 102.303 54.7234C109.988 54.4433 117.673 54.1633 125.357 53.8823C133.042 53.6023 140.727 53.3303 148.411 53.0412C158.227 52.6714 167.82 51.7942 176.551 48.0322C187.482 43.3232 193.608 34.7344 194.689 25.2803C195.199 20.8183 193.635 16.0542 190.842 12.1543C187.021 6.81931 180.809 3.34617 173.55 1.30222C164.818 -1.15578 154.729 0.157204 146.338 2.81931C139.763 4.90525 133.168 6.90232 126.417 8.6262C111.131 12.5303 95.3916 15.2964 79.4466 16.9663C81.3956 16.7622 83.3456 16.5593 85.2956 16.3552C64.3046 18.4973 43.0576 18.6882 22.0156 16.8623C16.7796 16.4082 10.0246 19.0974 6.45856 21.8652C2.64258 24.8274 -0.230436 29.6882 0.0145741 33.9433C0.269564 38.3613 2.13858 42.9424 6.45856 46.0212C7.94257 46.9114 9.42758 47.8022 10.9116 48.6924C14.3426 50.2373 18.0446 51.0144 22.0156 51.0244Z" fill="#F7F2E5"/>
</svg>
