<svg width="198" height="44" viewBox="0 0 198 44" fill="none" xmlns="http://www.w3.org/2000/svg">
<path d="M60.7125 16.4282H72.5825C72.9715 16.4282 73.2095 16.1902 73.2095 15.8012V14.7632C73.2095 14.3522 72.9715 14.1362 72.5825 14.1362H64.6685C64.2145 14.1362 64.0415 13.8342 64.3235 13.4662L72.6905 2.22321C72.8845 1.9422 72.9715 1.7262 72.9715 1.40222V1.25021C72.9715 0.861206 72.7335 0.645203 72.3015 0.645203H61.0795C60.6695 0.645203 60.4525 0.883209 60.4525 1.27222V2.33121C60.4525 2.72021 60.6695 2.95822 61.0795 2.95822H68.3225C68.7765 2.95822 68.9065 3.2612 68.6475 3.6282L60.3015 14.8282C60.1285 15.1092 60.0425 15.3252 60.0425 15.6502V15.8012C60.0425 16.2122 60.2795 16.4282 60.7125 16.4282Z" fill="#E2E1E0"/>
<path d="M76.8846 8.90402C77.4466 7.78003 78.5056 7.13104 79.6956 7.13104C80.8846 7.13104 81.8576 7.82303 82.2896 8.92603C82.4626 9.38004 82.2036 9.68304 81.7276 9.68304L77.4036 9.66104C76.9276 9.66104 76.6466 9.33603 76.8846 8.90402ZM79.7386 16.645C82.2466 16.645 84.0846 15.261 84.7116 13.466C84.8626 13.055 84.5816 12.774 84.1496 12.774H82.9386C82.5926 12.774 82.3976 12.947 82.2036 13.25C81.8136 13.985 80.9706 14.461 79.7386 14.461C78.2686 14.461 77.1226 13.639 76.6686 12.255C76.5386 11.801 76.7976 11.499 77.2736 11.499L84.3656 11.52C84.7766 11.52 85.0576 11.261 85.0576 10.872C85.1436 7.41302 82.6356 4.96902 79.7166 4.96902C76.4086 4.96902 73.9226 7.36902 73.9226 10.742C73.9226 14.18 76.4306 16.645 79.7386 16.645Z" fill="#E2E1E0"/>
<path d="M95.6944 9.53122V15.8012C95.6944 16.1902 95.9104 16.4282 96.3214 16.4282H97.6834C98.0724 16.4282 98.3104 16.1902 98.3104 15.8012V9.40125C98.3104 6.54724 96.8184 4.96924 94.3544 4.96924C92.7754 4.96924 91.4994 5.38022 90.1814 6.18024C89.7704 6.43924 89.4464 6.33124 89.3164 5.85522L89.2734 5.70422C89.1654 5.35825 88.9274 5.18524 88.5594 5.18524H87.9544C87.5434 5.18524 87.3274 5.42325 87.3274 5.81223V15.8012C87.3274 16.1902 87.5434 16.4282 87.9544 16.4282H89.2944C89.7054 16.4282 89.9214 16.1902 89.9214 15.8012V9.20724C89.9214 8.83923 90.0734 8.60123 90.3544 8.40622C91.4134 7.75824 92.5374 7.26123 93.5324 7.26123C94.9164 7.26123 95.6944 8.12622 95.6944 9.53122Z" fill="#E2E1E0"/>
<path d="M106.505 7.21802C108.538 7.21802 109.964 8.77499 109.964 10.807C109.964 12.818 108.538 14.396 106.505 14.396C104.451 14.396 103.045 12.818 103.045 10.807C103.045 8.77499 104.451 7.21802 106.505 7.21802ZM106.505 16.645C110.072 16.645 112.581 14.029 112.581 10.742C112.581 7.49899 110.072 4.96899 106.505 4.96899C102.938 4.96899 100.429 7.49899 100.429 10.742C100.429 14.029 102.938 16.645 106.505 16.645Z" fill="#E2E1E0"/>
<path d="M104.17 3.45567C104.365 3.80168 104.667 3.88768 105.013 3.73668L108.927 2.20167C109.316 2.05067 109.424 1.76967 109.251 1.38069L108.754 0.363691C108.559 -0.00331378 108.256 -0.111315 107.889 0.125684L104.257 2.33168C103.911 2.54768 103.846 2.84968 104.04 3.19667L104.17 3.45567Z" fill="#E2E1E0"/>
<path d="M123.174 9.53122V15.8012C123.174 16.1902 123.39 16.4282 123.801 16.4282H125.163C125.552 16.4282 125.79 16.1902 125.79 15.8012V9.40125C125.79 6.54724 124.298 4.96924 121.834 4.96924C120.255 4.96924 118.979 5.38022 117.661 6.18024C117.25 6.43924 116.926 6.33124 116.796 5.85522L116.753 5.70422C116.645 5.35825 116.407 5.18524 116.039 5.18524H115.434C115.023 5.18524 114.807 5.42325 114.807 5.81223V15.8012C114.807 16.1902 115.023 16.4282 115.434 16.4282H116.774C117.185 16.4282 117.401 16.1902 117.401 15.8012V9.20724C117.401 8.83923 117.553 8.60123 117.834 8.40622C118.893 7.75824 120.017 7.26123 121.012 7.26123C122.396 7.26123 123.174 8.12622 123.174 9.53122Z" fill="#E2E1E0"/>
<path d="M138.697 9.66122H137.205C136.967 9.66122 136.816 9.50922 136.816 9.27222V3.30423C136.816 3.06622 136.967 2.91522 137.205 2.91522H138.697C140.881 2.91522 142.524 4.29922 142.524 6.31021C142.524 8.16922 140.902 9.66122 138.697 9.66122ZM138.654 0.645203H134.87C134.351 0.645203 134.092 0.926208 134.092 1.42322V15.8012C134.092 16.1912 134.308 16.4282 134.718 16.4282H136.167C136.578 16.4282 136.816 16.1912 136.816 15.8012V12.3202C136.816 12.0822 136.967 11.9312 137.205 11.9312H138.654C142.437 11.9312 145.313 9.57422 145.313 6.31021C145.313 2.89322 142.416 0.645203 138.654 0.645203Z" fill="#E2E1E0"/>
<path d="M152.426 7.21802C154.459 7.21802 155.885 8.77499 155.885 10.807C155.885 12.818 154.459 14.396 152.426 14.396C150.372 14.396 148.966 12.818 148.966 10.807C148.966 8.77499 150.372 7.21802 152.426 7.21802ZM152.426 16.645C155.993 16.645 158.502 14.029 158.502 10.742C158.502 7.49899 155.993 4.96899 152.426 4.96899C148.859 4.96899 146.35 7.49899 146.35 10.742C146.35 14.029 148.859 16.645 152.426 16.645Z" fill="#E2E1E0"/>
<path d="M161.355 16.4282H162.695C163.106 16.4282 163.323 16.1902 163.323 15.8012V9.20721C163.323 8.8392 163.474 8.6012 163.755 8.40622C164.815 7.75821 165.939 7.2612 166.933 7.2612C168.317 7.2612 169.095 8.12622 169.095 9.53122V15.8012C169.095 16.1902 169.312 16.4282 169.722 16.4282H171.085C171.474 16.4282 171.712 16.1902 171.712 15.8012V9.40121C171.712 6.54721 170.22 4.96921 167.755 4.96921C166.177 4.96921 164.901 5.38022 163.582 6.18021C163.171 6.43921 162.847 6.33121 162.717 5.85522L162.674 5.70422C162.566 5.35822 162.328 5.18521 161.961 5.18521H161.355C160.944 5.18521 160.728 5.42322 160.728 5.81223V15.8012C160.728 16.1902 160.944 16.4282 161.355 16.4282Z" fill="#E2E1E0"/>
<path d="M185.116 13.0551C185.224 12.623 184.965 12.363 184.532 12.363H183.192C182.824 12.363 182.629 12.558 182.478 12.882C182.089 13.812 181.094 14.3951 179.819 14.3951C178.046 14.3951 176.511 13.0981 176.511 10.8061C176.511 8.64505 177.938 7.21704 179.819 7.21704C181.224 7.21704 182.219 7.97406 182.564 8.88205C182.716 9.22806 182.91 9.42307 183.278 9.42307H184.554C184.986 9.42307 185.224 9.16306 185.138 8.73105C184.684 6.67706 182.803 4.96906 179.775 4.96906C176.273 4.96906 173.83 7.47705 173.83 10.7421C173.83 14.071 176.273 16.644 179.862 16.644C182.435 16.644 184.597 15.217 185.116 13.0551Z" fill="#E2E1E0"/>
<path d="M189.613 8.90402C190.175 7.78003 191.234 7.13104 192.424 7.13104C193.613 7.13104 194.586 7.82303 195.018 8.92603C195.191 9.38004 194.932 9.68304 194.456 9.68304L190.132 9.66104C189.656 9.66104 189.375 9.33603 189.613 8.90402ZM190.002 11.499L197.094 11.52C197.505 11.52 197.786 11.261 197.786 10.872C197.872 7.41302 195.364 4.96902 192.445 4.96902C189.137 4.96902 186.651 7.36902 186.651 10.742C186.651 14.18 189.159 16.645 192.467 16.645C194.975 16.645 196.813 15.261 197.44 13.466C197.591 13.055 197.31 12.774 196.878 12.774H195.667C195.321 12.774 195.126 12.947 194.932 13.25C194.542 13.985 193.699 14.461 192.467 14.461C190.997 14.461 189.851 13.639 189.397 12.255C189.267 11.801 189.526 11.499 190.002 11.499Z" fill="#E2E1E0"/>
<path d="M67.1794 36.9482C63.9574 36.9482 61.5574 34.5912 61.5574 31.1971C61.5574 27.8452 63.9574 25.5321 67.1794 25.5321C70.4224 25.5321 72.8224 27.8452 72.8224 31.1971C72.8224 34.5912 70.4224 36.9482 67.1794 36.9482ZM67.1794 23.1321C62.4224 23.1321 58.7904 26.5052 58.7904 31.1971C58.7904 35.9532 62.4224 39.3481 67.1794 39.3481C71.9574 39.3481 75.6114 35.9532 75.6114 31.1971C75.6114 26.5052 71.9574 23.1321 67.1794 23.1321Z" fill="#E2E1E0"/>
<path d="M86.3778 34.6781C86.3778 34.9811 86.3558 35.2181 86.1838 35.5002C85.5998 36.4511 84.5398 37.0992 83.2208 37.0992C81.3618 37.0992 79.8698 35.5002 79.8698 33.4671C79.8698 31.4561 81.3838 29.9211 83.2208 29.9211C84.4968 29.9211 85.5778 30.5481 86.1838 31.5002C86.3558 31.7811 86.3778 32.0181 86.3778 32.3211V34.6781ZM88.3668 22.2681H87.0918C86.7018 22.2681 86.4648 22.5051 86.4648 22.8941V27.9101C86.4648 28.4291 86.1618 28.5811 85.7078 28.3211C84.9508 27.8891 84.0648 27.6731 83.0698 27.6731C79.6968 27.6731 77.1888 30.1591 77.1888 33.4671C77.1888 36.8831 79.6538 39.3481 83.1348 39.3481C84.4318 39.3481 85.5128 38.9591 86.3778 38.2672C86.7448 37.9211 87.0698 37.9861 87.2428 38.4612L87.3078 38.6341C87.4378 39.0021 87.6748 39.1321 88.0428 39.1321H88.3668C88.7778 39.1321 88.9938 38.8941 88.9938 38.5051V22.8941C88.9938 22.5051 88.7778 22.2681 88.3668 22.2681Z" fill="#E2E1E0"/>
<path d="M97.3396 37.0992C95.2856 37.0992 93.8796 35.5211 93.8796 33.5102C93.8796 31.4781 95.2856 29.9211 97.3396 29.9211C99.3726 29.9211 100.799 31.4781 100.799 33.5102C100.799 35.5211 99.3726 37.0992 97.3396 37.0992ZM97.3396 27.6721C93.7726 27.6721 91.2636 30.2021 91.2636 33.4452C91.2636 36.7321 93.7726 39.3481 97.3396 39.3481C100.907 39.3481 103.416 36.7321 103.416 33.4452C103.416 30.2021 100.907 27.6721 97.3396 27.6721Z" fill="#E2E1E0"/>
<path d="M112.668 27.6724C111.09 27.6724 109.814 28.0833 108.495 28.8834C108.084 29.1424 107.76 29.0344 107.63 28.5583L107.587 28.4073C107.479 28.0613 107.241 27.8883 106.874 27.8883H106.268C105.857 27.8883 105.641 28.1263 105.641 28.5154V38.5044C105.641 38.8933 105.857 39.1313 106.268 39.1313H107.609C108.019 39.1313 108.236 38.8933 108.236 38.5044V31.9103C108.236 31.5424 108.387 31.3044 108.668 31.1104C109.728 30.4614 110.852 29.9644 111.846 29.9644C113.23 29.9644 114.008 30.8293 114.008 32.2343V38.5044C114.008 38.8933 114.225 39.1313 114.636 39.1313H115.998C116.387 39.1313 116.625 38.8933 116.625 38.5044V32.1043C116.625 29.2503 115.133 27.6724 112.668 27.6724Z" fill="#E2E1E0"/>
<path d="M125.684 36.7751C125.122 36.9482 124.516 37.0562 123.868 37.0562C122.938 37.0562 122.527 36.5161 122.527 35.4991V30.3322C122.527 30.2021 122.635 30.1161 122.765 30.1161H125.835C126.246 30.1161 126.462 29.8781 126.462 29.4891V28.5161C126.462 28.1271 126.246 27.8891 125.835 27.8891H122.765C122.635 27.8891 122.527 27.8021 122.527 27.6512V25.4241C122.527 24.9921 122.268 24.7542 121.835 24.8622L120.538 25.1861C120.192 25.2941 120.019 25.5111 120.019 25.9001V27.6512C120.019 27.8021 119.911 27.8891 119.782 27.8891H118.981C118.57 27.8891 118.333 28.1271 118.333 28.5161V29.4891C118.333 29.8781 118.57 30.1161 118.96 30.1161H119.673C119.825 30.1161 119.911 30.2021 119.911 30.3322V35.5641C119.911 38.3752 121.489 39.3481 123.392 39.3481C124.387 39.3481 125.273 39.1751 126.051 38.9591C126.419 38.8291 126.57 38.5692 126.527 38.2021L126.441 37.2721C126.397 36.8401 126.116 36.6451 125.684 36.7751Z" fill="#E2E1E0"/>
<path d="M133.64 37.0992C131.586 37.0992 130.18 35.5211 130.18 33.5102C130.18 31.4781 131.586 29.9211 133.64 29.9211C135.673 29.9211 137.099 31.4781 137.099 33.5102C137.099 35.5211 135.673 37.0992 133.64 37.0992ZM133.64 27.6721C130.073 27.6721 127.564 30.2021 127.564 33.4452C127.564 36.7321 130.073 39.3481 133.64 39.3481C137.207 39.3481 139.716 36.7321 139.716 33.4452C139.716 30.2021 137.207 27.6721 133.64 27.6721Z" fill="#E2E1E0"/>
<path d="M143.953 22.2673H142.591C142.18 22.2673 141.964 22.5053 141.964 22.8943V38.5043C141.964 38.8943 142.18 39.1313 142.591 39.1313H143.953C144.342 39.1313 144.58 38.8943 144.58 38.5043V22.8943C144.58 22.5053 144.342 22.2673 143.953 22.2673Z" fill="#E2E1E0"/>
<path d="M152.925 37.0992C150.871 37.0992 149.465 35.5211 149.465 33.5102C149.465 31.4781 150.871 29.9211 152.925 29.9211C154.958 29.9211 156.384 31.4781 156.384 33.5102C156.384 35.5211 154.958 37.0992 152.925 37.0992ZM152.925 27.6721C149.358 27.6721 146.849 30.2021 146.849 33.4452C146.849 36.7321 149.358 39.3481 152.925 39.3481C156.492 39.3481 159.001 36.7321 159.001 33.4452C159.001 30.2021 156.492 27.6721 152.925 27.6721Z" fill="#E2E1E0"/>
<path d="M169.659 34.5697C169.659 34.8727 169.616 35.1107 169.443 35.3918C168.837 36.3207 167.8 36.9478 166.524 36.9478C164.643 36.9478 163.151 35.3477 163.151 33.4017C163.151 31.4568 164.665 29.9207 166.524 29.9207C167.778 29.9207 168.837 30.5267 169.443 31.4778C169.616 31.7377 169.659 31.9757 169.659 32.2777V34.5697ZM171.648 27.8887H171.173C170.827 27.8887 170.567 28.0617 170.459 28.3857L170.438 28.4937C170.286 28.9918 169.962 29.0348 169.572 28.7108C168.686 28.0397 167.605 27.6728 166.351 27.6728C162.978 27.6728 160.47 30.1588 160.47 33.4017C160.47 36.7318 162.935 39.1747 166.437 39.1747C167.475 39.1747 168.362 38.9367 169.118 38.4618C169.551 38.1808 169.875 38.2458 169.875 38.7207V38.7647C169.875 40.4717 168.513 41.6617 166.632 41.6617C165.4 41.6617 164.34 41.2077 163.886 40.5157C163.692 40.2347 163.497 40.0617 163.151 40.0617H161.984C161.53 40.0617 161.27 40.3427 161.443 40.7747C162.178 42.6338 164.059 43.7808 166.632 43.7808C169.94 43.7808 172.275 41.7697 172.275 38.7647V28.5157C172.275 28.1267 172.037 27.8887 171.648 27.8887Z" fill="#E2E1E0"/>
<path d="M178.934 23.0673C178.739 22.7003 178.437 22.5913 178.069 22.8293L174.523 25.0353C174.177 25.2513 174.112 25.5533 174.307 25.8993L174.436 26.1593C174.631 26.5053 174.912 26.5913 175.258 26.4403L179.085 24.9053C179.474 24.7533 179.582 24.4723 179.409 24.0833L178.934 23.0673Z" fill="#E2E1E0"/>
<path d="M177.248 27.8883H175.886C175.475 27.8883 175.259 28.1263 175.259 28.5154V38.5043C175.259 38.8933 175.475 39.1313 175.886 39.1313H177.248C177.637 39.1313 177.875 38.8933 177.875 38.5043V28.5154C177.875 28.1263 177.637 27.8883 177.248 27.8883Z" fill="#E2E1E0"/>
<path d="M187.777 35.4347C187.777 35.7586 187.669 35.9966 187.366 36.2126C186.458 36.7747 185.442 37.2076 184.404 37.2076C183.431 37.2076 182.696 36.7747 182.696 35.9316C182.696 35.0887 183.388 34.6346 184.923 34.6346H187.107C187.539 34.6346 187.777 34.8727 187.777 35.2837V35.4347ZM185.42 27.6726C182.912 27.6726 180.966 28.9696 180.534 31.1757C180.447 31.5856 180.685 31.8456 181.118 31.8456H182.264C182.674 31.8456 182.847 31.6296 182.955 31.3267C183.28 30.4616 184.101 29.8997 185.312 29.8997C186.782 29.8997 187.777 30.7426 187.777 32.2346C187.777 32.6457 187.539 32.8616 187.107 32.8616L184.88 32.8406C181.939 32.8186 180.08 34.1376 180.08 36.1696C180.08 37.9427 181.55 39.3486 183.712 39.3486C185.204 39.3486 186.479 38.8506 187.561 38.1587C187.971 37.8997 188.296 37.9857 188.469 38.4186L188.577 38.6566C188.707 39.0016 188.966 39.1317 189.312 39.1317H189.723C190.112 39.1317 190.35 38.8947 190.35 38.5046V32.6667C190.35 29.5536 188.534 27.6726 185.42 27.6726Z" fill="#E2E1E0"/>
<path d="M22.9571 5.83609C22.9621 4.30908 24.2021 3.07608 25.7291 3.07608H32.0651C38.5651 3.07608 39.4611 5.34409 39.4611 7.79507C39.4611 10.3401 38.6681 13.2601 32.4831 13.2601C29.5511 13.2601 26.3051 11.4971 23.1341 9.29208C23.0171 9.21008 22.9471 9.07309 22.9471 8.93109C22.9511 7.7981 22.9541 6.75708 22.9571 5.83609ZM20.5821 21.6511H22.2221C22.6111 21.6511 22.9261 21.3351 22.9271 20.9471C22.9271 18.0821 22.9311 15.6811 22.9371 13.0591C22.9371 12.9571 23.0491 12.8991 23.1351 12.9531C26.1881 14.8831 29.3511 16.3081 32.4831 16.3081C39.0421 16.3081 42.5091 13.3651 42.5091 7.79507C42.5091 2.64108 38.9951 0.0280762 32.0651 0.0280762H25.7351C22.5331 0.0280762 19.9201 2.63107 19.9091 5.83109C19.9081 6.09009 19.9071 6.35809 19.9061 6.6351C19.9061 6.74808 19.7761 6.81308 19.6871 6.74509C19.3061 6.45309 18.9291 6.16107 18.5561 5.87308C14.5151 2.7471 11.0261 0.0480957 8.00411 0.0480957C4.50411 0.0480957 0.276113 2.3721 0.013113 13.4411C-0.12388 19.2021 0.813116 24.8171 2.79612 30.1311C5.13611 36.4051 7.76911 39.4551 10.8441 39.4551C14.5091 39.4551 16.8181 35.3471 18.8561 31.7221C19.5251 30.5321 20.4691 28.8521 21.1341 28.1151C21.3071 27.9231 21.6101 27.9231 21.7831 28.1151C22.4481 28.8521 23.3921 30.5321 24.0611 31.7221C26.0981 35.3471 28.4081 39.4551 32.0731 39.4551C38.1011 39.4551 41.4241 26.7721 42.3241 22.7591C42.4101 22.3751 42.1661 21.9961 41.7811 21.9151L40.1751 21.5801C39.7971 21.5011 39.4271 21.7461 39.3441 22.1231C37.1941 31.8621 33.7621 36.4071 32.0731 36.4071C30.1911 36.4071 28.1841 32.8361 26.7181 30.2281C24.9921 27.1571 23.6291 24.7311 21.4591 24.7311C19.2891 24.7311 17.9251 27.1571 16.1991 30.2281C14.7331 32.8361 12.7261 36.4071 10.8441 36.4071C10.2681 36.4071 8.19311 35.8781 5.65111 29.0661C3.80511 24.1161 2.93311 18.8841 3.06011 13.5141C3.17312 8.76108 4.12211 3.09708 8.00411 3.09708C9.98411 3.09708 13.3941 5.7341 16.6911 8.28409C17.6381 9.01608 18.6101 9.76709 19.6011 10.5031C19.7851 10.6401 19.8941 10.8511 19.8931 11.0801C19.8851 14.2041 19.8791 17.3431 19.8781 20.9461C19.8781 21.3351 20.1931 21.6511 20.5821 21.6511Z" fill="#E2E1E0"/>
</svg>
